<?xml version="1.0" encoding="UTF-8"?><svg id="Capa_2" xmlns="http://www.w3.org/2000/svg" viewBox="0 0 1080 1080"><defs><style>.cls-1{fill:#fff;}.cls-1,.cls-2{stroke-width:0px;}.cls-2{fill:#d00a10;}</style></defs><circle class="cls-2" cx="544.2" cy="544.56" r="539"/><path class="cls-1" d="m876.03,601.15c5.74,0,10.4-4.65,10.4-10.4v-105.54c0-9.55-7.77-17.33-17.33-17.33h-114.96c-9.5,0-17.23,7.69-17.32,17.17h-66.06c-6.02,0-11.88-1.73-16.94-5l-66.31-42.89,49.25-49.25c19.06-19.06,19.06-50.08,0-69.14-19.06-19.06-50.08-19.06-69.13,0l-85.38,85.38-63.34,19.13c-5.49,1.67-8.59,7.48-6.92,12.97,1.66,5.54,7.63,8.59,12.97,6.92l26.26-7.99-93.86,93.86c-7.47,2.73-13.98,7.74-18.46,14.33l-8.8,12.93-102.59,102.59c-16.79-8.2-22.09-30.46-11.26-46.18l78.21-114.92c8.26-12.13,20.53-21.16,34.57-25.43l50.72-15.43c5.49-1.67,8.59-7.48,6.92-12.97-1.67-5.49-7.48-8.59-12.97-6.92l-50.72,15.43c-18.56,5.65-34.79,17.59-45.71,33.62l-78.21,114.92c-16.93,24.71-9.79,59.34,15.52,74.47-.58,1.08-1.14,2.18-1.66,3.3l-17,36.78c-4.38,9.48-4.06,20.01.47,28.88l-13.35,13.35c-4.06,4.06-4.06,10.64,0,14.7,4.06,4.06,10.64,4.06,14.7,0l13.34-13.35c9.03,4.62,19.59,4.77,28.88.47l36.78-17c6.54-3.02,12.44-7.14,17.54-12.24l30.46-30.46c.32,28.39,23.5,51.39,51.97,51.39,16.99,0,32.1-8.19,41.59-20.83,9.49,12.64,24.6,20.83,41.59,20.83,21.48,0,40.25-13.16,48.08-32.21,11.59,4.98,24.23,7.61,36.84,7.61h23.38c5.74,0,10.4-4.65,10.4-10.4s-4.65-10.4-10.4-10.4h-23.38c-21.07,1.52-49.85-16.91-68.33-25.25-12.7-6.23-26.9-9.52-41.05-9.52h-97.92c-17.1.37-32.02-14.98-31.18-32.07.46-16.71,14.83-30.31,32.04-30.31h86.29c22.42.28,41.43-15.94,46.35-39.51,1.66-5.61,2.24-11.49,1.71-17.3l99.74-99.74,70.05,45.32c8.43,5.45,18.2,8.34,28.24,8.34h66.05v177.58h-44.55c-15.8,0-31.16,4.55-44.42,13.15-9.4,6.1-20.71,9.32-32.7,9.32-5.74,0-10.4,4.65-10.4,10.4s4.65,10.4,10.4,10.4c16.02,0,31.24-4.38,44.02-12.68,9.88-6.41,21.32-9.8,33.1-9.8h44.55v5.92c0,9.55,7.77,17.33,17.33,17.33h114.96c9.55,0,17.33-7.77,17.33-17.33v-70.38c0-5.74-4.65-10.4-10.4-10.4s-10.4,4.65-10.4,10.4v66.92h-108.03v-217.99h108.03v102.08c0,5.74,4.66,10.4,10.4,10.4h0Zm-330.93-230.45l39.73,39.73-27.92,27.92-39.73-39.73,27.92-27.92Zm37.22-37.22c10.95-10.96,28.78-10.96,39.73,0,10.95,10.95,10.95,28.77,0,39.73l-22.52,22.52-39.73-39.73,22.52-22.52Zm-205.6,397.03c-20.69.18-33.74-19.09-31.19-38.59h62.38v7.4c0,17.2-13.99,31.19-31.19,31.19h0Zm90.61-31.19l21.84,10.7c-4.4,12.05-15.95,20.49-29.28,20.49-20.69.18-33.74-19.09-31.19-38.59,13.19-.51,26.76,1.38,38.63,7.4h0Zm-156.59-14.8l-31.15,31.15c-3.36,3.36-7.25,6.07-11.56,8.07l-36.78,17c-7.29,3.37-12.53-1.05-13.96-2.49-1.43-1.43-5.85-6.68-2.49-13.97l17-36.78c1.99-4.31,4.71-8.2,8.06-11.56l46.86-46.86c-4.91,21.26,5.29,44.41,24.02,55.43Zm15.73-95.19l176-176,39.73,39.73-134.9,134.9h-68.92c-4.09,0-8.07.49-11.91,1.37Z"/><circle class="cls-1" cx="794.68" cy="662.36" r="14.54"/></svg>