<?xml version="1.0" encoding="UTF-8"?><svg id="Capa_1" xmlns="http://www.w3.org/2000/svg" viewBox="0 0 60 60"><defs><style>.cls-1{fill:#fff;}.cls-2{fill:#d00a10;}</style></defs><circle class="cls-2" cx="30" cy="30" r="30"/><path class="cls-1" d="M45.17,43.17c-.46,0-.87,.16-1.21,.41l-6.62-6.72c1.49-1.7,2.42-3.88,2.53-6.29h2.75c.14,.97,.97,1.72,1.97,1.72,1.1,0,2-.9,2-2s-.9-2-2-2c-.8,0-1.48,.47-1.8,1.15h-2.94c-.16-2.35-1.12-4.48-2.61-6.13l6.65-6.93c.35,.29,.78,.47,1.27,.47,1.1,0,2-.9,2-2s-.9-2-2-2-2,.9-2,2c0,.2,.04,.38,.09,.56l-6.82,7.1c-1.59-1.41-3.62-2.34-5.86-2.53v-3.33c.67-.32,1.15-1.01,1.15-1.8,0-1.1-.9-2-2-2s-2,.9-2,2c0,1.01,.75,1.83,1.72,1.97v3.12c-2.43,.06-4.65,.96-6.37,2.43l-6.48-6.57c.16-.29,.25-.61,.25-.96,0-1.1-.9-2-2-2s-2,.9-2,2,.9,2,2,2c.34,0,.65-.09,.94-.24l6.47,6.56c-1.56,1.67-2.57,3.85-2.74,6.27h-2.86c-.32-.67-1.01-1.14-1.8-1.14-1.1,0-2,.9-2,2s.9,2,2,2c1.01,0,1.83-.75,1.97-1.72h2.68c.11,2.56,1.16,4.89,2.83,6.62,0,0,0,0,0,0l-6.19,6.45c-.35-.3-.8-.48-1.29-.48-1.1,0-2,.9-2,2s.9,2,2,2,2-.9,2-2c0-.18-.03-.36-.08-.53l6.39-6.66c1.71,1.43,3.9,2.3,6.28,2.35v2.86c-.97,.14-1.72,.97-1.72,1.98,0,1.1,.9,2,2,2s2-.9,2-2c0-.8-.47-1.48-1.14-1.8v-3.07c2.29-.2,4.36-1.16,5.97-2.63l6.75,6.85c-.07,.2-.12,.42-.12,.65,0,1.1,.9,2,2,2s2-.9,2-2-.9-2-2-2Zm-14.6-8.03c.71,.07,1.4,.23,2.06,.46-.54,1.64-1.29,2.78-2.06,3.25v-3.71Zm0-1.15v-3.41h2.85c-.03,1.45-.2,2.77-.47,3.92-.77-.26-1.56-.44-2.38-.51Zm0-4.56v-3.15c.82-.07,1.61-.25,2.38-.51,.26,1.08,.42,2.31,.47,3.66h-2.85Zm0-4.3v-3.71c.78,.46,1.53,1.61,2.07,3.25-.67,.23-1.36,.39-2.07,.46Zm1.69-3.69c1.17,.35,2.24,.92,3.16,1.68-.53,.44-1.11,.81-1.72,1.12-.38-1.13-.87-2.08-1.44-2.79Zm-2.83-.19v3.91c-.85-.02-1.67-.16-2.46-.4,.62-1.95,1.55-3.22,2.46-3.51Zm-3.53,3.09c-.7-.32-1.36-.73-1.97-1.22,1.01-.83,2.21-1.44,3.52-1.77-.62,.74-1.15,1.76-1.55,2.99Zm3.53,1.97v3.12h-3.21c.04-1.31,.2-2.51,.45-3.56,.89,.27,1.82,.42,2.77,.44Zm0,4.27v3.38c-.95,.02-1.88,.17-2.77,.44-.26-1.12-.42-2.41-.45-3.82h3.22Zm0,4.53v3.91c-.92-.29-1.84-1.56-2.46-3.51,.79-.25,1.62-.38,2.46-.4Zm-1.98,3.82c-1.31-.33-2.51-.94-3.52-1.77,.61-.5,1.27-.9,1.97-1.22,.4,1.23,.93,2.26,1.55,3Zm6.26-2.88c.61,.3,1.18,.68,1.72,1.12-.92,.75-1.99,1.33-3.16,1.67,.57-.71,1.06-1.66,1.44-2.79Zm2.55,.33c-.68-.58-1.43-1.06-2.23-1.44,.32-1.3,.51-2.77,.54-4.35h4.16c-.11,2.24-1.03,4.26-2.47,5.79Zm8.34-6.93c.47,0,.86,.39,.86,.86s-.39,.86-.86,.86-.86-.39-.86-.86,.39-.86,.86-.86Zm-10.03,0c-.05-1.48-.23-2.86-.54-4.09,.8-.38,1.54-.86,2.23-1.43,1.39,1.47,2.29,3.39,2.46,5.52h-4.15Zm10.61-15.46c.47,0,.86,.39,.86,.86s-.38,.86-.86,.86-.86-.39-.86-.86,.39-.86,.86-.86Zm-16.32,.86c0-.47,.38-.86,.86-.86s.86,.39,.86,.86-.38,.86-.86,.86-.86-.39-.86-.86Zm-14.89,0c0-.47,.39-.86,.86-.86s.86,.39,.86,.86-.39,.86-.86,.86-.86-.39-.86-.86Zm9.12,9.08c.76,.64,1.59,1.16,2.49,1.55-.29,1.2-.47,2.54-.51,3.97h-4.43c.16-2.13,1.07-4.06,2.45-5.52Zm-8.26,7.24c-.47,0-.86-.39-.86-.86s.39-.86,.86-.86,.86,.39,.86,.86-.39,.86-.86,.86Zm10.23-.57c.03,1.53,.21,2.96,.52,4.23-.89,.39-1.73,.91-2.49,1.55-1.44-1.53-2.36-3.55-2.47-5.78h4.44Zm-10.23,15.46c-.47,0-.86-.38-.86-.86s.39-.86,.86-.86c.31,0,.58,.17,.73,.42,0,0,0,0,0,0,.08,.13,.12,.28,.12,.44,0,.47-.39,.86-.86,.86Zm14.88,0c-.47,0-.86-.38-.86-.86s.38-.86,.86-.86,.86,.39,.86,.86-.38,.86-.86,.86Zm15.46,0c-.47,0-.86-.38-.86-.86s.39-.86,.86-.86,.86,.39,.86,.86-.38,.86-.86,.86Z"/></svg>