<?xml version="1.0" encoding="UTF-8"?><svg id="Capa_1" xmlns="http://www.w3.org/2000/svg" viewBox="0 0 60 60"><defs><style>.cls-1{fill:none;stroke:#fff;stroke-linecap:round;stroke-linejoin:round;stroke-width:1.4px;}.cls-2{fill:#d00a10;}</style></defs><circle class="cls-2" cx="30" cy="30" r="30"/><g id="g1528"><g id="g1534"><path id="path1536" class="cls-1" d="M11.2,47.27H48.8"/></g><path id="path1538" class="cls-1" d="M18.78,35.78h-5.5v11.49h5.5v-11.49Z"/><path id="path1540" class="cls-1" d="M41.22,28.85h5.5v18.42h-5.5V28.85Z"/><g id="g1542"><path id="path1544" class="cls-1" d="M28.09,41.5v5.77h-5.5V28.85h5.5v5.77"/></g><path id="path1546" class="cls-1" d="M31.91,35.78h5.5v11.49h-5.5v-11.49Z"/><g id="g1548"><path id="path1550" class="cls-1" d="M18.78,24.8c0-1.52-1.23-2.75-2.75-2.75s-2.75,1.23-2.75,2.75,1.23,2.75,2.75,2.75,2.75-1.23,2.75-2.75Z"/></g><g id="g1552"><path id="path1554" class="cls-1" d="M37.41,24.8c0-1.52-1.23-2.75-2.75-2.75s-2.75,1.23-2.75,2.75,1.23,2.75,2.75,2.75,2.75-1.23,2.75-2.75Z"/></g><g id="g1556"><path id="path1558" class="cls-1" d="M28.09,15.48c0-1.52-1.23-2.75-2.75-2.75s-2.75,1.23-2.75,2.75,1.23,2.75,2.75,2.75,2.75-1.23,2.75-2.75Z"/></g><g id="g1560"><path id="path1562" class="cls-1" d="M46.73,15.48c0-1.52-1.23-2.75-2.75-2.75s-2.75,1.23-2.75,2.75,1.23,2.75,2.75,2.75,2.75-1.23,2.75-2.75Z"/></g><g id="g1564"><path id="path1566" class="cls-1" d="M17.97,22.86l5.43-5.43"/></g><g id="g1568"><path id="path1570" class="cls-1" d="M32.71,22.86l-5.43-5.43"/></g><g id="g1572"><path id="path1574" class="cls-1" d="M36.6,22.86l5.43-5.43"/></g><g id="g1576"><path id="path1578" class="cls-1" d="M28.09,38.06h0"/></g></g></svg>