<?xml version="1.0" encoding="UTF-8"?><svg id="Capa_1" xmlns="http://www.w3.org/2000/svg" viewBox="0 0 60 60"><defs><style>.cls-1{fill:#fff;}.cls-2{fill:#d00a10;}</style></defs><circle class="cls-2" cx="30" cy="30" r="30"/><g><path class="cls-1" d="M39.32,26.42h-5.73c-.4,0-.72,.32-.72,.72v.72c0,.4-.32,.72-.72,.72h-4.3c-.4,0-.72-.32-.72-.72v-.72c0-.4-.32-.72-.72-.72h-5.73c-.4,0-.72,.32-.72,.72s.32,.72,.72,.72h5.02c0,1.19,.96,2.15,2.15,2.15h4.3c1.19,0,2.15-.96,2.15-2.15h5.02c.4,0,.72-.32,.72-.72s-.32-.72-.72-.72Z"/><path class="cls-1" d="M46.45,25.77c-.26-7.21-5.19-13.4-12.17-15.26-.07-1.13-1-2.01-2.14-2.01h-4.3c-1.13,0-2.07,.89-2.14,2.02-6.98,1.84-11.92,8.04-12.17,15.25-1.68,.33-2.89,1.8-2.89,3.51v1.43c0,1.19,.96,2.15,2.15,2.15h.72v5.02c0,.4,.32,.72,.72,.72h4.12c.22,.73,.52,1.44,.88,2.12l-2.91,2.91c-.28,.28-.28,.73,0,1.01l4.05,4.05c.28,.28,.73,.28,1.01,0l2.91-2.91c.68,.36,1.39,.65,2.12,.88v4.12c0,.4,.32,.72,.72,.72h5.73c.4,0,.72-.32,.72-.72v-4.12c.73-.23,1.44-.52,2.12-.88l2.92,2.91c.28,.28,.73,.28,1.01,0l4.05-4.05c.28-.28,.28-.73,0-1.01l-2.91-2.92c.36-.68,.66-1.38,.88-2.12h4.12c.4,0,.72-.32,.72-.72v-5.02h.72c1.19,0,2.15-.96,2.15-2.15v-1.43c0-1.71-1.22-3.18-2.9-3.51Zm-1.4,11.39h-3.94c-.33,0-.61,.22-.69,.54-.25,.97-.64,1.9-1.15,2.76-.17,.28-.12,.64,.11,.87l2.79,2.8-3.04,3.04-2.8-2.79c-.23-.23-.59-.28-.88-.11-.86,.51-1.79,.9-2.76,1.15-.32,.08-.54,.37-.54,.7v3.94h-4.3v-3.94c0-.33-.22-.61-.54-.69-.97-.25-1.91-.64-2.77-1.15-.28-.17-.64-.12-.87,.11l-2.79,2.78-3.04-3.04,2.78-2.79c.23-.23,.28-.59,.11-.87-.51-.87-.9-1.8-1.15-2.77-.08-.32-.37-.54-.7-.54h-3.94v-4.3h8.23c-1.21,3.77,.87,7.8,4.64,9.01,3.77,1.21,7.8-.87,9.01-4.64,.46-1.42,.46-2.95,0-4.37h8.23v4.3Zm-11.74-4.3h1.99c1.2,2.93-.2,6.28-3.12,7.48-2.93,1.2-6.28-.2-7.48-3.12-.57-1.4-.57-2.96,0-4.36h1.95m0,0h6.66m0-1.43h-6.71m0,0H12.8c-.4,0-.72-.32-.72-.72v-1.43c0-.91,.58-1.72,1.43-2.02v2.02c0,.4,.32,.72,.72,.72s.72-.32,.72-.72v-2.87c-.03-6.66,4.36-12.54,10.75-14.41v9.39c0,.4,.32,.72,.72,.72s.72-.32,.72-.72V10.65c0-.4,.32-.72,.72-.72h4.3c.4,0,.72,.32,.72,.72v10.75c0,.4,.32,.72,.72,.72s.72-.32,.72-.72V12c6.38,1.89,10.76,7.76,10.75,14.42v2.87c0,.4,.32,.72,.72,.72s.72-.32,.72-.72v-2.02c.86,.3,1.43,1.11,1.43,2.02v1.43c0,.4-.32,.72-.72,.72h-13.89"/><path class="cls-1" d="M36.45,19.97c.4,0,.72-.32,.72-.72v-4.3c0-.4-.32-.72-.72-.72s-.72,.32-.72,.72v4.3c0,.4,.32,.72,.72,.72Z"/><path class="cls-1" d="M23.55,19.97c.4,0,.72-.32,.72-.72v-4.3c0-.4-.32-.72-.72-.72s-.72,.32-.72,.72v4.3c0,.4,.32,.72,.72,.72Z"/><path class="cls-1" d="M42.9,26.42h-.72c-.4,0-.72,.32-.72,.72s.32,.72,.72,.72h.72c.4,0,.72-.32,.72-.72s-.32-.72-.72-.72Z"/><path class="cls-1" d="M17.82,26.42h-.72c-.4,0-.72,.32-.72,.72s.32,.72,.72,.72h.72c.4,0,.72-.32,.72-.72s-.32-.72-.72-.72Z"/><path class="cls-1" d="M16.38,34.3h1.43v1.43h-1.43v-1.43Z"/><path class="cls-1" d="M19.86,44.14l1.01-1.01,1.01,1.01-1.01,1.01-1.01-1.01Z"/><path class="cls-1" d="M29.28,47.2h1.43v1.43h-1.43v-1.43Z"/><path class="cls-1" d="M38.1,44.14l1.01-1.01,1.01,1.01-1.01,1.01-1.01-1.01Z"/><path class="cls-1" d="M42.18,34.3h1.43v1.43h-1.43v-1.43Z"/></g></svg>