<?xml version="1.0" encoding="UTF-8"?><svg id="Capa_1" xmlns="http://www.w3.org/2000/svg" viewBox="0 0 60 60"><defs><style>.cls-1{fill:none;stroke:#fff;stroke-linecap:round;stroke-linejoin:round;stroke-width:1.4px;}.cls-2{fill:#d00a10;}</style></defs><circle class="cls-2" cx="30" cy="30" r="30"/><g id="g3139"><g id="g3145"><path id="path3147" class="cls-1" d="M33.86,20.89c0-2.13-1.73-3.86-3.86-3.86s-3.86,1.73-3.86,3.86,1.73,3.86,3.86,3.86,3.86-1.73,3.86-3.86Z"/></g><g id="g3149"><path id="path3151" class="cls-1" d="M30,20.89h0"/></g><g id="g3153"><path id="path3155" class="cls-1" d="M31.93,17.02v-5.3h-3.86v5.3"/></g><g id="g3157"><path id="path3159" class="cls-1" d="M30,24.75l-9.11,18.65c-.5,1.03-1.75,1.46-2.78,.96h0c-1.03-.5-1.46-1.75-.96-2.78l9.33-19.09"/></g><g id="g3161"><path id="path3163" class="cls-1" d="M16.11,48.28l1.99-3.93"/></g><g id="g3165"><path id="path3167" class="cls-1" d="M35.39,26.3l-1.87-3.83"/></g><g id="g3169"><path id="path3171" class="cls-1" d="M30,24.75l8.2,16.78c.5,1.03,1.75,1.46,2.78,.96h0c1.03-.5,1.46-1.75,.96-2.78l-3.61-7.39"/></g><g id="g3173"><path id="path3175" class="cls-1" d="M43.89,48.28l-2.91-5.75"/></g><g id="g3177"><path id="path3179" class="cls-1" d="M25.13,35.2h9.73"/></g><g id="g3181"><path id="path3183" class="cls-1" d="M39.74,35.2h4.53"/></g><g id="g3185"><path id="path3187" class="cls-1" d="M20.26,35.2h-4.53"/></g><g id="g3189"><path id="path3191" class="cls-1" d="M30,33.15v4.11"/></g><g id="g3193"><path id="path3195" class="cls-1" d="M38.43,44.34c0,.9,.73,1.63,1.63,1.63s1.63-.73,1.63-1.63-.73-1.63-1.63-1.63-1.63,.73-1.63,1.63Z"/></g><g id="g3197"><path id="path3199" class="cls-1" d="M36.86,29.31h0"/></g></g></svg>