<?xml version="1.0" encoding="UTF-8"?><svg id="Capa_2" xmlns="http://www.w3.org/2000/svg" viewBox="0 0 1080 1080"><defs><style>.cls-1{fill:#fff;}.cls-1,.cls-2{stroke-width:0px;}.cls-2{fill:#d00a10;}</style></defs><circle class="cls-2" cx="544.2" cy="544.56" r="539"/><path class="cls-1" d="m787.47,345.38c-9.78,0-18.67,3.85-25.25,10.11-8.97-4.77-19.63-5.68-29.48-2.19-19.11,6.78-29.09,27.74-22.31,46.85,31.47,88.68,29.72,83.4,29.83,84.81l-9.35,10.74c-2.01-6.92-5.9-13.17-11.38-18.14-15.88-14.41-40-13.63-54.91,1.79l-86.9,89.83c-11.49,11.88-17.82,27.53-17.82,44.06v75.55h-6.35c-4.69,0-9.02,1.53-12.55,4.09-3.53-2.56-7.86-4.09-12.55-4.09h-6.35v-75.55c0-16.53-6.33-32.18-17.82-44.06l-86.9-89.83c-14.91-15.42-39.03-16.2-54.91-1.79-5.48,4.97-9.36,11.22-11.38,18.14l-9.35-10.74c.05-.63.18-1.24.39-1.83l29.44-82.98c11.23-31.66-22.52-60.25-51.79-44.67-23.26-22.1-61.94-5.6-61.94,26.59v84.25c0,20.89,6.89,41.62,19.32,58.27l65.45,90.05c15.94,21.93,26.11,47.39,29.72,74.15h-2.86c-11.82,0-21.44,9.62-21.44,21.45v111.82c0,11.82,9.62,21.44,21.44,21.44h158.99c4.69,0,9.02-1.53,12.55-4.09,3.53,2.57,7.86,4.09,12.55,4.09h158.99c11.82,0,21.44-9.62,21.44-21.44v-11.77c0-4.91-3.98-8.89-8.89-8.89s-8.89,3.98-8.89,8.89v11.77c0,2.01-1.64,3.66-3.66,3.66h-158.99c-2.02,0-3.66-1.64-3.66-3.66v-68.7h166.31v15.43c0,4.91,3.98,8.9,8.9,8.9s8.89-3.98,8.89-8.9v-58.55c0-11.83-9.62-21.45-21.45-21.45h-2.86c3.61-26.75,13.78-52.22,29.72-74.15l65.39-89.96c12.49-16.74,19.38-37.47,19.38-58.36v-84.25c0-20.24-16.46-36.7-36.69-36.7Zm-432.65,48.83l-23.59,66.47v-78.61c0-3.92-.64-7.85-1.84-11.5,14.96-6.59,31.01,7.9,25.43,23.63Zm2.18,209.98l-65.52-90.14c-10.22-13.69-15.85-30.64-15.85-47.72v-84.25c0-10.42,8.48-18.91,18.91-18.91s18.91,8.52,18.91,18.91v88.05c0,6.27,2.4,12.17,6.18,16.51,59.87,68.8,22.62,27.76,90.79,101.48,3.33,3.61,8.96,3.83,12.56.49,3.61-3.33,3.83-8.96.5-12.56-49.44-53.46-39.01-41.98-53.24-58.33-4.97-8.51-3.66-19.86,4.18-26.98,8.73-7.92,21.99-7.49,30.18.98l86.9,89.83c8.27,8.55,12.82,19.8,12.82,31.69v75.55h-114.04c-3.71-30.54-15.13-59.63-33.28-84.6Zm175.11,217.87c0,2.02-1.64,3.66-3.66,3.66h-158.98c-2.02,0-3.66-1.64-3.66-3.66v-68.7h166.3v68.7Zm0-86.48h-166.3v-25.34c0-2.01,1.64-3.66,3.66-3.66h158.98c2.02,0,3.66,1.64,3.66,3.66v25.34Zm195.08-341.37c-3.5-9.85,1.65-20.65,11.5-24.14,4.58-1.62,9.54-1.43,13.93.51-1.2,3.66-1.85,7.6-1.85,11.5v78.6l-23.59-66.47Zm-14.65,312.37c2.02,0,3.66,1.64,3.66,3.66v25.34h-166.31v-25.34c0-2.01,1.64-3.66,3.66-3.66h158.98Zm93.84-240.25c0,17.08-5.63,34.03-15.92,47.81l-65.45,90.05c-18.15,24.97-29.57,54.06-33.28,84.6h-114.04v-75.55c0-11.89,4.55-23.15,12.82-31.69l86.9-89.83c8.19-8.47,21.45-8.91,30.18-.98,7.86,7.13,9.15,18.48,4.19,26.98-14.24,16.37-3.8,4.87-53.24,58.33-3.33,3.6-3.11,9.23.49,12.56,3.6,3.33,9.23,3.12,12.57-.49,69.03-74.66,34.02-36.23,89.04-99.46,2.02-2.32,7.93-8.19,7.93-18.53v-88.05c0-10.42,8.49-18.91,18.91-18.91s18.9,8.48,18.9,18.91v84.25h0Z"/><path class="cls-1" d="m560.79,437.27c-4.91,0-8.89,3.98-8.89,8.89s3.98,8.89,8.89,8.89h114.3c8.57,0,15.55-6.97,15.55-15.55v-44.24c0-22.66-12.93-42.36-31.78-52.13,6.81-6.86,11.02-16.3,11.02-26.71,0-20.91-17.01-37.93-37.93-37.93s-37.93,17.01-37.93,37.93c0,10.41,4.21,19.84,11.02,26.7-.85.44-1.69.9-2.52,1.38-7.27-12.8-18.42-23.13-31.84-29.36,9.35-8.24,15.27-20.29,15.27-33.71,0-24.78-20.16-44.94-44.94-44.94s-44.94,20.16-44.94,44.94c0,13.42,5.91,25.47,15.26,33.71-13.43,6.23-24.57,16.56-31.84,29.36-.83-.48-1.67-.94-2.52-1.38,6.81-6.86,11.02-16.3,11.02-26.7,0-20.91-17.02-37.93-37.93-37.93s-37.93,17.01-37.93,37.93c0,10.41,4.22,19.84,11.03,26.71-18.86,9.77-31.78,29.47-31.78,52.13v44.24c0,8.57,6.97,15.55,15.55,15.55h112.39c4.91,0,8.89-3.98,8.89-8.89s-3.98-8.89-8.89-8.89h-31.23v-57.96c0-29.02,23.59-52.93,52.93-52.93s52.93,23.81,52.93,52.93v57.96h-33.14Zm71.16-140.99c11.11,0,20.15,9.04,20.15,20.15s-9.04,20.15-20.15,20.15-20.15-9.04-20.15-20.15,9.04-20.15,20.15-20.15Zm40.91,98.98v42h-61.14v-57.96c0-6.32-.87-12.57-2.35-18.14,27.15-18.02,63.5,1.6,63.5,34.09Zm-222.81-98.98c11.11,0,20.15,9.04,20.15,20.15s-9.04,20.15-20.15,20.15-20.15-9.04-20.15-20.15,9.04-20.15,20.15-20.15Zm20.24,83.03v57.96h-61.14v-42c0-32.49,36.34-52.11,63.5-34.09-1.47,5.53-2.35,11.82-2.35,18.14Zm70.71-70.71c-14.97,0-27.16-12.18-27.16-27.16s12.18-27.16,27.16-27.16,27.16,12.18,27.16,27.16-12.18,27.16-27.16,27.16Z"/></svg>