<?xml version="1.0" encoding="UTF-8"?><svg id="Capa_1" xmlns="http://www.w3.org/2000/svg" viewBox="0 0 60 60"><defs><style>.cls-1{fill:#d00a10;}.cls-2{fill:none;stroke:#fff;stroke-linecap:round;stroke-linejoin:round;stroke-width:1.48px;}</style></defs><circle class="cls-1" cx="30" cy="30" r="30"/><g id="g1075"><g id="g1081"><path id="path1083" class="cls-2" d="M28.41,35.47l.75,.82c3.34,3.66,8.07,5.74,13.03,5.74h5.91c0,1.76-1.43,3.19-3.19,3.19l-7.62-.02c-3.01,0-5.91-1.13-8.14-3.15l-14.42-13.07c-2.3-2.09-1.4-5.9,1.6-6.73h0l7.62,8.33"/></g><g id="g1085"><path id="path1087" class="cls-2" d="M16.07,22.25c.57-4.22,4.19-7.47,8.57-7.47l.38,1.39c.73,2.68,3.51,4.24,6.19,3.48h0c1.35-.39,2.78,.32,3.28,1.64l4.38,11.35c.59,1.52,1.84,2.69,3.4,3.17l1.6,.49c2.51,.78,4.22,3.1,4.22,5.73"/></g><g id="g1089"><path id="path1091" class="cls-2" d="M20.5,26.82c1.21-1.11,1.97-2.7,1.97-4.47,0-2.42-1.42-4.51-3.47-5.48"/></g><g id="g1093"><path id="path1095" class="cls-2" d="M35.18,23.06l-1.64,.74"/></g><g id="g1097"><path id="path1099" class="cls-2" d="M36.53,26.75l-1.64,.75"/></g><g id="g1101"><path id="path1103" class="cls-2" d="M37.85,30.55l-1.16,.53"/></g><g id="g1105"><path id="path1107" class="cls-2" d="M39.93,34.34c-2.42,1.83-5.1,3.32-7.98,4.43"/></g><g id="g1109"><path id="path1111" class="cls-2" d="M35.94,36.55l-6.7-11.56c-1.16-2-.22-4.56,1.96-5.34"/></g><g id="g1113"><path id="path1115" class="cls-2" d="M37.28,45.2h-14.95"/></g><g id="g1117"><path id="path1119" class="cls-2" d="M18.58,45.2h-5.15"/></g><g id="g1121"><path id="path1123" class="cls-2" d="M13.93,40.89h-2.02"/></g><g id="g1125"><path id="path1127" class="cls-2" d="M22.11,40.89h-4.7"/></g><g id="g1129"><path id="path1131" class="cls-2" d="M22.89,36.58H13.93"/></g><g id="g1133"><path id="path1135" class="cls-2" d="M26.18,33.03h0"/></g></g></svg>