<?xml version="1.0" encoding="UTF-8"?><svg id="Capa_1" xmlns="http://www.w3.org/2000/svg" viewBox="0 0 60 60"><defs><style>.cls-1{fill:#fff;}.cls-2{fill:#d00a10;}</style></defs><circle class="cls-2" cx="30" cy="30" r="30"/><g><path class="cls-1" d="M46.29,19.67l1.5-.76c.86-.44,1.21-1.49,.78-2.36-.3-.59-.9-.96-1.57-.96l-1.29,.06c-1.07-.55-2.31-.63-3.44-.24-8.61-6.77-21.08-5.29-27.85,3.32-6.77,8.61-5.29,21.08,3.32,27.85,8.61,6.77,21.08,5.29,27.85-3.32,2.75-3.5,4.25-7.82,4.25-12.27,.01-4.05-1.23-8.01-3.55-11.33Zm-1.01-2.92c.1,.06,.21,.08,.32,.08l1.34-.07h.06c.22,0,.43,.13,.52,.33,.13,.29,.02,.63-.26,.77l-6.06,3.06,.11-1.24c.03-.32-.21-.61-.53-.63-.12-.01-.23,.02-.34,.07l-4.66,2.63c-.23,.13-.35,.41-.28,.67l.34,1.22-7.87,3.97c-.52,.26-1.15,.18-1.58-.2l-2.49-2.2c.4-.22,.89-.24,1.31-.03l1.37,.66c.18,.09,.39,.08,.56-.03l14.93-9.01c.99-.58,2.22-.6,3.22-.03Zm-8.53,5.79l3.29-1.86-.6,6.98-1.14,.48-1.56-5.61Zm-1.99-2.72l-2.69-2.36,.93-.82,4.31,1.64-2.55,1.54Zm-11.66-6.17c-.15,.76-.19,1.54-.14,2.31,0,.12,.02,.23,.03,.35,.06,.61,.12,1.19-.13,1.59s-.79,.63-1.36,.86l-.16,.07c-1.56,.65-2.6,1.47-3.18,2.53-.33,.67-.56,1.38-.68,2.12-.07,.34-.14,.67-.23,.98-.11,.38-.54,1.62-1.5,1.79-.69,.12-1.34-.37-2.08-.93-.38-.29-.77-.56-1.19-.79,1.85-4.96,5.7-8.92,10.62-10.88ZM11.33,31c0-1.81,.26-3.6,.78-5.33,.28,.17,.57,.38,.86,.6,.74,.56,1.57,1.18,2.57,1.18,.14,0,.28-.01,.41-.03,1.1-.19,2.01-1.16,2.43-2.61,.1-.36,.18-.72,.26-1.07,.1-.62,.29-1.23,.56-1.8,.45-.81,1.3-1.47,2.6-2.01l.16-.06c.69-.28,1.47-.6,1.92-1.34s.36-1.58,.29-2.32c-.01-.11-.02-.22-.03-.33-.07-.91,.03-1.82,.28-2.69,5.69-1.78,11.89-.74,16.68,2.81l-2.52,1.52-5.5-2.09c-.2-.08-.43-.04-.6,.11l-1.69,1.49c-.24,.21-.27,.58-.05,.83,.02,.02,.03,.04,.05,.05l2.91,2.55-6.91,4.17-1.08-.52c-.88-.43-1.93-.32-2.7,.28l-.4,.3c-.26,.2-.31,.56-.11,.82,.02,.03,.05,.06,.08,.08l3.03,2.68c.79,.7,1.94,.85,2.88,.37l7.66-3.86,1.2,4.32c.09,.31,.41,.49,.72,.41,.02,0,.05-.01,.07-.02l2.08-.88c.2-.08,.34-.27,.36-.49l.5-5.83,4.15-2.09c1.7,2.39,2.81,5.15,3.23,8.05-1.54,.1-3.06,.43-4.51,.97-.5,.2-1,.43-1.47,.66-1.24,.59-2.42,1.14-3.65,1.08-.8-.09-1.57-.31-2.3-.64-.4-.16-.81-.32-1.23-.45-1.75-.54-3.32-.26-4.2,.75-.82,.94-.84,2.29-.84,3.18l-.05,4.67c-.02,2.07-.16,4.32-1.59,4.79-4.19,1.39-5.45,2.97-5.72,4.99-1.25-.52-2.43-1.17-3.54-1.94-.16-.28-.31-.56-.44-.85-.13-.3-.48-.43-.77-.29-.05,.03-.1,.06-.15,.1-4.22-3.54-6.66-8.77-6.66-14.27Zm18.67,18.67c-2.04,0-4.06-.33-5.98-.99,.08-1.3,.56-2.83,4.97-4.3,2.34-.78,2.37-3.98,2.39-5.89l.05-4.67c0-.95,.06-1.85,.56-2.42,.67-.76,1.97-.71,2.98-.4,.38,.12,.75,.26,1.15,.42,.84,.38,1.74,.62,2.66,.72,1.53,.09,2.9-.56,4.22-1.19,.48-.23,.94-.45,1.4-.63,1.35-.5,2.77-.81,4.21-.9,.04,.52,.07,1.05,.07,1.58-.01,10.31-8.36,18.66-18.67,18.67Z"/><path class="cls-1" d="M45.95,26.2c.11,.31,.44,.47,.75,.36,.29-.1,.45-.41,.38-.7-.2-.66-.44-1.32-.72-1.95-.13-.3-.47-.43-.77-.3-.3,.13-.43,.47-.3,.77,.26,.59,.48,1.2,.67,1.82Z"/><path class="cls-1" d="M22.13,30.36c.16,0,.32-.07,.43-.19,.25-.27,.52-.53,.79-.78,.24-.21,.27-.58,.05-.83s-.58-.27-.83-.05h0c-.31,.27-.6,.56-.88,.86-.22,.24-.2,.61,.03,.83,.11,.1,.25,.16,.4,.16Z"/><path class="cls-1" d="M19.11,34.36c.29,.15,.64,.03,.79-.26,.36-.71,.76-1.4,1.2-2.06,.19-.26,.14-.63-.12-.82-.26-.19-.63-.14-.82,.12-.01,.01-.02,.03-.03,.04-.47,.7-.9,1.43-1.28,2.19-.15,.29-.03,.64,.26,.79,0,0,0,0,0,0Z"/><path class="cls-1" d="M18.23,43.25c-.12-.65-.18-1.32-.17-1.98,0-.11,0-.23,0-.34,0-.32-.25-.59-.57-.6-.32,0-.59,.25-.6,.57,0,.12,0,.25,0,.38,0,.74,.06,1.47,.19,2.2,.05,.28,.29,.48,.58,.48,.04,0,.07,0,.11,0,.32-.06,.53-.36,.47-.68Z"/><g><circle class="cls-1" cx="18.06" cy="37.42" r=".72"/><path class="cls-1" d="M18.06,36.7c-.4,0-.72,.32-.72,.72s.32,.72,.72,.72,.72-.32,.72-.72-.32-.72-.72-.72h0Z"/></g></g></svg>