<?xml version="1.0" encoding="UTF-8"?><svg id="Capa_1" xmlns="http://www.w3.org/2000/svg" viewBox="0 0 60 60"><defs><style>.cls-1{fill:#fff;}.cls-2{fill:#d00a10;}</style></defs><circle class="cls-2" cx="30" cy="30" r="30"/><g><path class="cls-1" d="M31.03,23.21c-.62,1.43-1.47,2.19-1.48,2.2,0,0,0,0,0,0-.59,.53-.93,1.29-.93,2.09,0,.89,.41,1.71,1.11,2.25,.75,.57,1.75,.77,2.67,.51,.36-.1,.78-.15,1.22-.15s.87,.05,1.23,.16c.27,.08,.55,.11,.82,.11,.59,0,1.18-.17,1.68-.51,.69-.46,1.15-1.18,1.26-1.99,0,0,0,0,0,0,.13-1-.25-1.96-1.03-2.58-.27-.27-.89-.97-1.38-2.11-.44-1.05-1.45-1.72-2.58-1.72-1.13,0-2.15,.68-2.58,1.72h0Zm1.1,.46c.25-.6,.83-.99,1.48-.99s1.23,.39,1.48,.99h0c.59,1.37,1.36,2.21,1.66,2.51,.02,.02,.04,.03,.05,.05,.46,.36,.68,.92,.61,1.51-.06,.47-.32,.87-.73,1.14-.45,.3-1.01,.38-1.52,.24-.47-.13-1.01-.2-1.56-.2s-1.07,.07-1.53,.19c-.56,.15-1.17,.04-1.63-.31-.42-.32-.64-.78-.64-1.3,0-.46,.19-.89,.53-1.2,.08-.07,1.07-.97,1.79-2.62h0Z"/><path class="cls-1" d="M27.64,20.25c-.47-.15-.94-.12-1.34,.09-.98,.5-1.25,1.85-.62,3.07,.34,.66,.9,1.16,1.52,1.36,.19,.06,.39,.09,.58,.09,.27,0,.53-.06,.76-.18,.98-.5,1.25-1.85,.62-3.07h0c-.34-.66-.9-1.16-1.52-1.36h0Zm.35,3.36c-.15,.08-.32,.05-.43,.01-.32-.1-.63-.39-.82-.77-.34-.65-.21-1.29,.11-1.46,.07-.04,.14-.05,.21-.05,.08,0,.15,.02,.21,.04,.32,.1,.63,.39,.82,.77,.34,.65,.21,1.29-.11,1.46Z"/><path class="cls-1" d="M38.67,24.67c.23,.12,.49,.18,.76,.18,.19,0,.38-.03,.58-.09,.62-.2,1.18-.69,1.52-1.36,.63-1.21,.35-2.56-.62-3.07-.4-.21-.88-.24-1.34-.09-.62,.2-1.18,.69-1.52,1.36h0c-.63,1.21-.35,2.56,.62,3.07h0Zm.44-2.52c.2-.38,.5-.67,.82-.77,.11-.04,.28-.06,.43,.01,.32,.17,.45,.81,.11,1.46-.2,.38-.5,.67-.82,.77-.11,.04-.28,.06-.43-.01-.32-.17-.45-.81-.11-1.46h0Z"/><path class="cls-1" d="M31.23,20.85c.55,0,1.05-.32,1.37-.88,.28-.49,.39-1.12,.32-1.75-.15-1.24-.99-2.2-1.93-2.2-.55,0-1.05,.32-1.37,.88-.28,.49-.39,1.12-.32,1.75,.15,1.24,.99,2.2,1.93,2.2Zm-.57-3.36c.04-.06,.17-.28,.33-.28,.24,0,.66,.46,.74,1.15h0c.04,.38-.02,.76-.17,1.02-.04,.06-.17,.28-.33,.28-.24,0-.66-.46-.74-1.15-.04-.37,.02-.76,.17-1.02Z"/><path class="cls-1" d="M36.01,20.85c.93,0,1.78-.97,1.93-2.2,.07-.63-.04-1.27-.32-1.75-.32-.56-.82-.88-1.37-.88-.93,0-1.78,.97-1.93,2.2-.07,.63,.04,1.27,.32,1.75,.32,.56,.82,.88,1.37,.88h0Zm-.5-2.49h0c.08-.69,.5-1.15,.74-1.15,.16,0,.29,.21,.33,.28,.15,.26,.21,.65,.17,1.02-.08,.69-.5,1.15-.74,1.15-.16,0-.29-.21-.33-.28-.15-.26-.22-.65-.17-1.02Z"/><path class="cls-1" d="M15.39,45.43c0,.33,.27,.6,.6,.6s.6-.27,.6-.6c0-.61,.5-1.11,1.11-1.11s1.11,.5,1.11,1.11-.5,1.11-1.11,1.11c-.33,0-.6,.27-.6,.6s.27,.6,.6,.6c1.27,0,2.3-1.03,2.3-2.3s-1.03-2.3-2.3-2.3-2.3,1.03-2.3,2.3h0Z"/><path class="cls-1" d="M47.24,24.03c0-.33-.27-.6-.6-.6h-.57V14.33c0-1.4-1.06-2.57-2.42-2.72-.44-.64-1.52-1.98-2.84-1.98-1.43,0-2.59,1.16-2.59,2.59s1.16,2.59,2.59,2.59c1.32,0,2.41-1.36,2.85-1.99,.7,.15,1.22,.77,1.22,1.51v9.11h-.62c-.33,0-.6,.27-.6,.6,0,5.56-4.51,10.08-10.06,10.08-3.75,0-7.16-2.07-8.91-5.4-.15-.29-.51-.4-.81-.25-.29,.15-.4,.51-.25,.81,1.96,3.73,5.78,6.04,9.97,6.04,6.01,0,10.93-4.74,11.24-10.68h1.2c-.31,6.6-5.77,11.88-12.43,11.88s-12.12-5.28-12.43-11.88h1.2c.04,.71,.14,1.42,.31,2.11,.08,.32,.4,.52,.72,.44s.52-.4,.44-.72c-.19-.79-.29-1.6-.29-2.42,0-.33-.27-.6-.6-.6h-.67V14.33c0-.74,.52-1.36,1.22-1.51,.43,.63,1.52,1.99,2.85,1.99,1.43,0,2.59-1.16,2.59-2.59s-1.16-2.59-2.59-2.59c-1.31,0-2.4,1.34-2.84,1.98-1.36,.16-2.42,1.32-2.42,2.72v9.11h-.52c-.33,0-.6,.27-.6,.6,0,7.34,5.8,13.34,13.05,13.65v8.11c0,1.87-1.52,3.39-3.38,3.39s-3.38-1.52-3.38-3.39v-4.7c0-2.53-2.05-4.58-4.57-4.58-2.33,0-4.26,1.76-4.54,4.02-2.46,.28-4.37,2.38-4.37,4.91,0,2.72,2.21,4.94,4.93,4.94s4.93-2.22,4.93-4.94c0-2.51-1.87-4.58-4.29-4.9,.27-1.61,1.66-2.83,3.34-2.83,1.86,0,3.38,1.52,3.38,3.39v4.7c0,2.53,2.05,4.58,4.57,4.58s4.57-2.06,4.57-4.58v-8.11c7.25-.31,13.05-6.32,13.05-13.65h0Zm-6.43-10.42c-.77,0-1.39-.63-1.39-1.4s.63-1.4,1.39-1.4c.66,0,1.41,.85,1.81,1.4-.42,.59-1.18,1.4-1.81,1.4Zm-14.48-2.8c.77,0,1.39,.63,1.39,1.4s-.63,1.4-1.39,1.4c-.66,0-1.41-.85-1.81-1.4,.4-.55,1.15-1.4,1.81-1.4Zm-4.91,34.61c0,2.07-1.68,3.75-3.74,3.75s-3.74-1.68-3.74-3.75,1.68-3.75,3.74-3.75,3.74,1.68,3.74,3.75Z"/></g></svg>