<?xml version="1.0" encoding="UTF-8"?><svg id="Capa_1" xmlns="http://www.w3.org/2000/svg" viewBox="0 0 60 60"><defs><style>.cls-1{fill:#fff;}.cls-2{fill:none;stroke:#fff;stroke-linecap:round;stroke-linejoin:round;stroke-width:1.12px;}.cls-3{fill:#d00a10;}</style></defs><circle class="cls-3" cx="30" cy="30" r="30"/><g id="g871"><g id="g877"><path id="path879" class="cls-2" d="M15.57,26.43c.96,2.01,.97,4.03,0,6.06"/></g><g id="g881"><path id="path883" class="cls-2" d="M36.49,15.67c-.76,1.61-.77,3.22,0,4.85"/></g><g id="g885"><path id="path887" class="cls-2" d="M26.89,15.67h10.54c.82,0,1.5-.67,1.5-1.5s-.67-1.5-1.5-1.5H18.15c-2.99,0-5.42,2.43-5.42,5.42,0,1.44,.57,2.81,1.59,3.83,1.02,1.02,2.39,1.59,3.83,1.59m19.29,0c.82,0,1.5-.67,1.5-1.5s-.67-1.5-1.5-1.5H18.15c-.65,0-1.26-.26-1.71-.71-.46-.46-.71-1.07-.71-1.71,0-1.33,1.09-2.42,2.43-2.42h5.93"/></g><g id="g889"><path id="path891" class="cls-2" d="M16.29,29.46h14.03"/></g><g id="g893"><path id="path895" class="cls-2" d="M25.75,29.46v11.34c.03,.35-.11,.46-.41,.19l-1.99-1.9-1.99,1.9c-.29,.27-.43,.16-.4-.19v-11.34"/></g><g id="g897"><path id="path899" class="cls-2" d="M38.13,38.34h9.35c.8,0,1.46-.66,1.46-1.46s-.66-1.46-1.46-1.46H25.75m0,2.92h4.94m-9.74-2.92h-7.13c-1.52,0-2.77,1.25-2.77,2.77v6.37c0,1.52,1.25,2.77,2.77,2.77H47.48c.8,0,1.46-.66,1.46-1.46s-.66-1.46-1.46-1.46H14.72c-.41,0-.74-.33-.74-.74v-4.59c0-.41,.33-.74,.74-.74h6.24"/></g><g id="g901"><path id="path903" class="cls-2" d="M40.93,35.42c1.52,0,2.77-1.25,2.77-2.77v-6.37c0-1.52-1.25-2.77-2.77-2.77H14.19c-.8,0-1.46,.66-1.46,1.46s.66,1.46,1.46,1.46h25.85c.41,0,.74,.33,.74,.74v4.59c0,.41-.33,.74-.74,.74h-14.29m-4.8,0h-6.76c-.8,0-1.46,.66-1.46,1.46s.66,1.46,1.46,1.46"/></g><g id="g905"><path id="path907" class="cls-2" d="M46.11,38.34c-.96,2.01-.97,4.03,0,6.06"/></g></g><g><circle class="cls-1" cx="35.02" cy="40.77" r=".75"/><path class="cls-1" d="M35.02,40.02c-.41,0-.75,.34-.75,.75s.34,.75,.75,.75,.75-.34,.75-.75-.34-.75-.75-.75h0Z"/></g></svg>