<?xml version="1.0" encoding="UTF-8"?><svg id="Capa_2" xmlns="http://www.w3.org/2000/svg" viewBox="0 0 1080 1080"><defs><style>.cls-1{fill:#fff;}.cls-1,.cls-2{stroke-width:0px;}.cls-2{fill:#d00a10;}</style></defs><circle class="cls-2" cx="544.2" cy="544.56" r="539"/><path class="cls-1" d="m627.9,575.33c-13.47-15.16-32.54-23.93-55.5-25.61v-122.16c44.26-38.79,80.86-72.96,80.86-109.08,0-39.07-18.37-61.47-50.4-61.47-37.16,0-47.07,43.51-47.07,69.23v93.79c-1,.88-2.01,1.75-3.01,2.63-59.33,51.83-126.58,110.57-126.58,184.92,0,37.48,12.12,69.08,35.05,91.38,21.3,20.71,51.14,32.12,84.02,32.12,3.27,0,6.8-.25,10.52-.76v42.29c0,20.52-13.69,33.78-34.89,33.78-25.47,0-32.35-21.82-34.21-33.4-.65-4.05-4.14-7.03-8.24-7.03h0c-5.09,0-9.02,4.53-8.23,9.56,1.02,6.43,3.26,15.13,8.19,23.57,9.14,15.65,23.83,23.91,42.48,23.91,30.32,0,51.5-20.72,51.5-50.4v-46.01c34.8-10.69,75.32-41.06,75.32-96.87,0-20.7-7.04-40.01-19.82-54.39Zm-55.5-249.1c0-9.25,1.74-23.08,6.63-34.17,5.47-12.41,13.27-18.44,23.83-18.44,22.42,0,33.78,15.09,33.78,44.86,0,26.15-29.15,55.64-64.24,86.92v-79.16Zm-16.61,223.59c-34.47,3.46-54.96,28.89-57.36,71.3-.27,4.68,3.52,8.6,8.2,8.6h.34c4.3,0,7.8-3.39,8.05-7.68,1.4-24.99,10.31-51.46,40.77-55.48v146.97c-3.9.64-7.46.93-10.52.93-51,0-102.46-33.05-102.46-106.89,0-63.71,58.42-117.68,112.98-165.48v107.73Zm43.87,144.37c-8.86,6.9-18.33,11.74-27.25,14.96v-142.76c40.47,3.6,58.7,33.59,58.7,63.33,0,33.06-17.1,53.31-31.45,64.47h0Z"/><path class="cls-1" d="m669.87,354.47h145.1c4.59,0,8.31,3.72,8.31,8.31h0c0,4.59-3.72,8.31-8.31,8.31h-145.1c-4.59,0-8.31-3.72-8.31-8.31h0c0-4.59,3.72-8.31,8.31-8.31Z"/><path class="cls-1" d="m644.39,708.91h170.58c4.59,0,8.31,3.72,8.31,8.31h0c0,4.59-3.72,8.31-8.31,8.31h-170.58c-4.59,0-8.31-3.72-8.31-8.31h0c0-4.59,3.72-8.31,8.31-8.31Z"/><path class="cls-1" d="m348.1,636.92h50.4c4.59,0,8.31-3.72,8.31-8.31h0c0-4.59-3.72-8.31-8.31-8.31h-50.4c-4.59,0-8.31-3.72-8.31-8.31v-55.38c0-4.59,3.72-8.31,8.31-8.31h63.69c4.59,0,8.31-3.72,8.31-8.31h0c0-4.59-3.72-8.31-8.31-8.31h-63.69c-4.59,0-8.31-3.72-8.31-8.31v-55.38c0-4.59,3.72-8.31,8.31-8.31h131.25c4.59,0,8.31-3.72,8.31-8.31h0c0-4.59-3.72-8.31-8.31-8.31h-131.25c-4.59,0-8.31-3.72-8.31-8.31v-55.38c0-4.59,3.72-8.31,8.31-8.31h181.1c4.59,0,8.31-3.72,8.31-8.31h0c0-4.59-3.72-8.31-8.31-8.31h-264.17c-4.59,0-8.31,3.72-8.31,8.31v354.44c0,4.59,3.72,8.31,8.31,8.31h172.24c4.59,0,8.31-3.72,8.31-8.31h0c0-4.59-3.72-8.31-8.31-8.31h-89.16c-4.59,0-8.31-3.72-8.31-8.31v-55.38c0-4.59,3.72-8.31,8.31-8.31Zm-33.23,72h-33.23c-4.59,0-8.31-3.72-8.31-8.31v-321.21c0-4.59,3.72-8.31,8.31-8.31h33.23c4.59,0,8.31,3.72,8.31,8.31v321.21c0,4.59-3.72,8.31-8.31,8.31Z"/><path class="cls-1" d="m600.09,443.08h214.88c4.59,0,8.31,3.72,8.31,8.31h0c0,4.59-3.72,8.31-8.31,8.31h-214.88c-4.59,0-8.31-3.72-8.31-8.31h0c0-4.59,3.72-8.31,8.31-8.31Z"/><path class="cls-1" d="m630,531.69h184.97c4.59,0,8.31,3.72,8.31,8.31h0c0,4.59-3.72,8.31-8.31,8.31h-184.97c-4.59,0-8.31-3.72-8.31-8.31h0c0-4.59,3.72-8.31,8.31-8.31Z"/><path class="cls-1" d="m675.41,620.3h139.56c4.59,0,8.31,3.72,8.31,8.31h0c0,4.59-3.72,8.31-8.31,8.31h-139.56c-4.59,0-8.31-3.72-8.31-8.31h0c0-4.59,3.72-8.31,8.31-8.31Z"/></svg>