<?xml version="1.0" encoding="UTF-8"?><svg id="Capa_2" xmlns="http://www.w3.org/2000/svg" viewBox="0 0 1080 1080"><defs><style>.cls-1{fill:#fff;}.cls-1,.cls-2{stroke-width:0px;}.cls-2{fill:#d00a10;}</style></defs><circle class="cls-2" cx="544.2" cy="544.56" r="539"/><path class="cls-1" d="m549.44,797c-2.88.01-5.67-.99-7.88-2.85l-253.34-209.85c-50.71-42.08-70.33-111.01-49.38-173.48,18.96-60.83,73.86-103.37,137.49-106.54h11.39c64.9-.09,125.56,32.22,161.71,86.12,36-53.95,96.56-86.37,161.42-86.41h11.39c63.53,3.28,118.29,45.8,137.21,106.54,21.04,62.47,1.4,131.45-49.38,173.48l-253.24,209.85c-2.05,1.84-4.66,2.94-7.41,3.13Zm-161.42-468.31h-9.5c-53.76,2.41-100.17,38.44-115.84,89.92-18.28,52.77-1.63,111.35,41.68,146.61l245.08,203.39,245.36-203.39c43.31-35.26,59.97-93.83,41.68-146.61-15.73-51.09-61.7-86.9-115.08-89.64h-10.07c-63.49-.05-121.71,35.29-150.98,91.63-2.12,4.07-6.33,6.64-10.92,6.65-4.62,0-8.86-2.56-11.01-6.65-29.09-56.27-87.06-91.7-150.41-91.92Z"/><path class="cls-1" d="m213.21,673.94c-23.55-.05-42.59-19.18-42.54-42.73.05-23.55,19.18-42.59,42.73-42.54,23.51.05,42.54,19.12,42.54,42.63-.05,23.56-19.17,42.63-42.73,42.63Zm0-60.58c-9.91,0-17.95,8.04-17.95,17.95,0,9.91,8.04,17.95,17.95,17.95,9.91,0,17.95-8.04,17.95-17.95,0-.03,0-.06,0-.09-.05-9.87-8.07-17.85-17.95-17.85Z"/><path class="cls-1" d="m566.63,682.58c-5.36-.02-10.1-3.46-11.77-8.55l-39.5-121.92-30.86,83.46c-1.81,4.83-6.42,8.05-11.58,8.07h-229.41c-6.82,0-12.34-5.54-12.33-12.36,0-6.81,5.52-12.32,12.33-12.33h220.48l40.26-108.82c1.78-4.97,6.59-8.2,11.87-7.98,5.24.07,9.86,3.46,11.49,8.45l40.83,124.77,34.56-79.67c1.94-4.51,6.39-7.43,11.3-7.41h282.68c6.82,0,12.35,5.51,12.36,12.33,0,6.82-5.51,12.35-12.33,12.36h-274.63l-44.44,102.17c-1.92,4.53-6.38,7.45-11.3,7.41Z"/></svg>