<?xml version="1.0" encoding="UTF-8"?><svg id="Capa_1" xmlns="http://www.w3.org/2000/svg" viewBox="0 0 60 60"><defs><style>.cls-1{fill:none;stroke:#fff;stroke-linecap:round;stroke-linejoin:round;stroke-width:1.37px;}.cls-2{fill:#fff;}.cls-3{fill:#d00a10;}</style></defs><circle class="cls-3" cx="30" cy="30" r="30"/><g><g id="g1849"><g id="g1855"><path id="path1857" class="cls-1" d="M16.17,45.82h-3.5c-.84,0-1.52,.68-1.52,1.52s.68,1.52,1.52,1.52H31.48c.84,0,1.52-.68,1.52-1.52s-.68-1.52-1.52-1.52h-10.32"/></g><g id="g1859"><path id="path1861" class="cls-1" d="M14.94,45.82c-.84,0-1.52-.68-1.52-1.52s.68-1.52,1.52-1.52h14.28c.84,0,1.52,.68,1.52,1.52s-.68,1.52-1.52,1.52"/></g><g id="g1863"><path id="path1865" class="cls-1" d="M35.19,27.59l10.48,10.48c.73,.73,1.91,.73,2.64,0,.73-.73,.73-1.91,0-2.64l-10.5-10.5"/></g><g id="g1867"><path id="path1869" class="cls-1" d="M24.21,23.47l9.49-9.49"/></g><g id="g1871"><path id="path1873" class="cls-1" d="M39.25,19.53l-9.49,9.49"/></g><g id="g1875"><path id="path1877" class="cls-1" d="M30.26,31.44h0c.53-.53,.53-1.4,0-1.93l-6.54-6.54c-.53-.53-1.4-.53-1.93,0s-.53,1.4,0,1.93l6.54,6.54c.53,.53,1.4,.53,1.93,0Z"/></g><g id="g1879"><path id="path1881" class="cls-1" d="M35.75,12.16l-.61-.61c-.53-.53-1.4-.53-1.93,0-.53,.53-.53,1.4,0,1.93l6.54,6.54c.53,.53,1.4,.53,1.93,0,.53-.53,.53-1.4,0-1.93l-3.86-3.86"/></g><g id="g1883"><path id="path1885" class="cls-1" d="M31.77,27.02l.45,.45c.82,.82,2.14,.82,2.96,0l2.53-2.53c.82-.82,.82-2.14,0-2.96l-.45-.45-5.48,5.48Z"/></g><g id="g1887"><path id="path1889" class="cls-1" d="M14.96,37.18l3.3,2.23"/></g><g id="g1891"><path id="path1893" class="cls-1" d="M29.34,37.18l-3.3,2.23"/></g><g id="g1895"><path id="path1897" class="cls-1" d="M22.15,36.94v-3.79"/></g></g><g><circle class="cls-2" cx="18.6" cy="45.83" r=".68"/><path class="cls-2" d="M18.6,45.14c-.38,0-.68,.31-.68,.68s.31,.68,.68,.68,.68-.31,.68-.68-.31-.68-.68-.68h0Z"/></g></g></svg>