<svg id="Capa_1" data-name="Capa 1" xmlns="http://www.w3.org/2000/svg" viewBox="0 0 1080 1080"><defs><style>.cls-1{fill:#003d7c;stroke:#261f1c;stroke-linecap:round;stroke-linejoin:round;stroke-width:0.5px;}.cls-2{fill:#1a1a1a;}</style></defs><path class="cls-1" d="M930.85,485.09c0,15.1-8.37,22.57-24.94,22.57q-115.27,0-230.54,0h-7.61c14.67-12.22,27.6-23.25,40.87-33.93,5.15-4.15,7.52-8.67,7.42-15.05-.33-22.67-.17-45.34-.11-68,0-15.39,8.35-23,25.39-23q82.06-.06,164.11,0c17,0,25.38,7.58,25.41,23Q931,437.91,930.85,485.09Z"/><path class="cls-2" d="M473.21,539.73c-10.92-13.76-13.4-29-12.81-45.29.44-11.91-.08-23.85.17-35.78a57.35,57.35,0,0,1,53.85-56.09c40.81-2.71,67.25,22.09,67.3,63.14q0,11.66,0,23.33c0,27.51,0,27.54-12.05,50.8,5.26,1.49,10.46,2.88,15.61,4.44,40.82,12.36,64.2,49.72,61.81,84.35-.82,11.87-.11,23.85-.14,35.77,0,11-4,16.76-11.71,16.94-7.91.19-12.11-5.75-12.13-17.26,0-12.19-.64-24.42.12-36.56,1.76-28.09-17.29-51.26-42.14-59.55-7.56-2.53-15.51-4.87-23.38-5.29-28.69-1.53-57.58-3.94-86,2.18-26.55,5.72-45.5,20.62-52.09,48.28a41.2,41.2,0,0,0-.9,9.22c-.09,15.56,0,31.12-.09,46.67,0,7-3.88,11.42-10.67,12.13-6.49.68-12.17-3-12.3-9.26-.43-20.95-2.48-42.41,1.17-62.77,6.75-37.68,33-58.28,69-67.54Zm10.85-58.44c0,7.77-.27,15.55.05,23.3.79,19.11,15.57,32.67,36,33.34,19.76.65,36-12,37.25-30.83a384,384,0,0,0,0-50.43c-1.33-20.06-17-31.31-40.17-30.57-18.31.58-32.52,14.83-33.13,33.44C483.85,466.78,484,474,484.06,481.29Z"/><path class="cls-2" d="M520.83,317.86c-4.65,0-9.32.24-14-.06-6.61-.43-10.43-4.21-11-10.81-.58-6.27,3.6-11.93,10.24-12.33a220.41,220.41,0,0,1,30.19.09c6.33.5,10.14,5.14,9.89,11.82s-4.06,10.57-10.62,11.15c-4.87.43-9.81.09-14.72.09Z"/><path class="cls-2" d="M938.44,375.4c0-29.6-19.1-48.63-48.66-48.69-9.49,0-19,0-29.07,0,0-8.22,0-15.43,0-22.65-.1-33.29-21.11-54.33-54.51-54.34q-200.72,0-401.44,0c-8-.91-14.58,4.89-15,11-.44,6.56,6.26,13.63,15,12.78,217.15.1,374.94,0,399.75,0,22.72,0,32.65,10,32.67,32.73,0,6.45,0,12.9,0,20.53H807.54c-29.31,0-58.63-.07-87.94,0-28,.07-47.27,19.38-47.39,47.54-.1,23.61.2,47.22-.25,70.81a17.32,17.32,0,0,1-5,11.07c-19,18-38.49,35.54-57.8,53.25-4.11,3.77-6.44,8.12-4.21,13.84s6.48,7.76,12.22,7.69c2.34,0,4.67,0,7,0H836.79V742.68H826.68l-276.27-.1c-9.43,0-14,4.26-15,13.9-.81,7.59-6.29,13-13.64,13.41s-14-5.06-15.27-12.72c-2.1-12.19-5.11-14.54-17.35-14.53q-138.92.08-277.82,0c-1.77,0-3.54-.22-6.27-.4v-8.59q0-214,0-428c0-22.43,9.79-32.22,32.18-32.22h71.56c8,.86,14.51-4.82,15-10.78.54-6.52-6.12-13.74-15-13-15.92.63-28.88,0-37.87,0-13,0-25.94-.13-38.9.06-18.53.26-32.79,8.47-43,23.84-6.73,10.17-7.88,21.66-7.88,33.51q.1,211.64,0,423.27c0,2.34-.15,4.68,0,7,.32,4.26-1.28,6.16-5.77,6-5.95-.26-11.94.23-17.89-.13-7.18-.43-12.7,1.74-16.05,8.37v35.8c1.93,5.06,3.33,10.4,5.86,15.14,11.18,20.91,29.6,27.89,52.41,27.87q321-.27,641.9-.12c4.15,0,8.31-.14,12.43-.5,24.11-2.15,43-20.24,45.73-44.43,1-9,.77-18.12.72-27.19,0-11-4-14.73-15.23-14.85-8-.08-15.93,0-24.19,0V530.94c10.19,0,20,.1,29.76,0,28.7-.35,47.49-19.34,47.54-48.14Q938.55,429.1,938.44,375.4ZM870.88,767c1.53,0,3,.15,5.36.27,0,6.12.57,11.59-.12,16.89-1.46,11.39-11.58,20.77-23,22a90.41,90.41,0,0,1-9.32.25q-322.89,0-645.77.3c-23.62.06-36.8-16.38-32-39.34,2.39-.11,4.91-.33,7.43-.33q151.72.06,303.43.06c4.86,0,7.74,1,10.2,5.77,7,13.62,18.73,20.66,34,20.67s26.79-7.3,34-20.72c2-3.76,3.75-5.76,8.5-5.76Q717.22,767.16,870.88,767Zm44-285c-.05,16.93-8.53,25.31-25.43,25.31q-117.51,0-235,0h-7.76c15-13.7,28.13-26.07,41.66-38.05,5.26-4.66,7.67-9.72,7.57-16.88-.34-25.42-.17-50.84-.12-76.27,0-17.26,8.52-25.74,25.89-25.76q83.65-.07,167.3,0c17.35,0,25.88,8.51,25.91,25.8Q915,429,914.85,481.94Z"/></svg>