<?xml version="1.0" encoding="utf-8"?>
<!-- Generator: Adobe Illustrator 26.0.3, SVG Export Plug-In . SVG Version: 6.00 Build 0)  -->
<svg version="1.1" id="Capa_1" xmlns="http://www.w3.org/2000/svg" xmlns:xlink="http://www.w3.org/1999/xlink" x="0px" y="0px"
	 viewBox="0 0 1080 1080" style="enable-background:new 0 0 1080 1080;" xml:space="preserve">
<style type="text/css">
	.st0{fill:#FFFFFF;stroke:#261F1C;stroke-width:0.3107;stroke-linecap:round;stroke-linejoin:round;stroke-miterlimit:10;}
	.st1{fill:#003D7C;stroke:#261F1C;stroke-width:0.25;stroke-linecap:round;stroke-linejoin:round;stroke-miterlimit:10;}
	.st2{fill:#D00A10;}
	.st3{fill:url(#SVGID_1_);}
	.st4{fill:url(#SVGID_00000028316660259494711710000013363277696904237759_);}
	.st5{fill:#FFFFFF;stroke:#261F1C;stroke-width:0.6214;stroke-linecap:round;stroke-linejoin:round;stroke-miterlimit:10;}
	.st6{fill:#D00A10;stroke:#261F1C;stroke-width:0.5;stroke-linecap:round;stroke-linejoin:round;stroke-miterlimit:10;}
	.st7{fill:#FFFFFF;stroke:#261F1C;stroke-width:0.2536;stroke-linecap:round;stroke-linejoin:round;stroke-miterlimit:10;}
	.st8{fill:#FFFFFF;stroke:#261F1C;stroke-width:0.5;stroke-linecap:round;stroke-linejoin:round;stroke-miterlimit:10;}
	.st9{fill:#FFFFFF;stroke:#261F1C;stroke-width:0.4928;stroke-linecap:round;stroke-linejoin:round;stroke-miterlimit:10;}
	.st10{fill:#003D7C;stroke:#261F1C;stroke-width:0.4928;stroke-linecap:round;stroke-linejoin:round;stroke-miterlimit:10;}
	.st11{fill:#261F1C;}
	.st12{fill:url(#SVGID_00000041974834786981980730000011902297266778351537_);}
	.st13{fill:#FFFFFF;stroke:#261F1C;stroke-width:0.25;stroke-linecap:round;stroke-linejoin:round;stroke-miterlimit:10;}
	.st14{fill:#D00A10;stroke:#261F1C;stroke-width:0.25;stroke-linecap:round;stroke-linejoin:round;stroke-miterlimit:10;}
	.st15{fill:url(#SVGID_00000165951161260244450510000010216943521995903128_);}
	.st16{fill:#3C2718;}
	.st17{fill:url(#);stroke:#261F1C;stroke-width:0.25;stroke-linecap:round;stroke-linejoin:round;stroke-miterlimit:10;}
	.st18{fill:#261F1C;stroke:#261F1C;stroke-width:0.1093;stroke-linecap:round;stroke-linejoin:round;stroke-miterlimit:10;}
	.st19{fill:#003D7C;}
	.st20{clip-path:url(#SVGID_00000009562610146773024110000001302757920264563596_);}
	.st21{fill:#D00A10;stroke:#261F1C;stroke-width:0.1;stroke-linecap:round;stroke-linejoin:round;stroke-miterlimit:10;}
	.st22{filter:url(#Adobe_OpacityMaskFilter);}
	.st23{mask:url(#SVGID_00000072242608517280229230000000811132746110091912_);}
	.st24{filter:url(#Adobe_OpacityMaskFilter_00000014603745332452490280000009933334811884126855_);}
	.st25{mask:url(#SVGID_00000154426028044283038540000014688199348716905379_);}
	.st26{fill:url(#SVGID_00000092438418895176912420000018206802506657629068_);}
	.st27{opacity:0.1;}
	.st28{fill:#003D7C;stroke:#261F1C;stroke-width:0.5;stroke-linecap:round;stroke-linejoin:round;stroke-miterlimit:10;}
	.st29{fill:#FFFFFF;}
	.st30{fill:#262120;}
	.st31{fill:#003D7C;stroke:#261F1C;stroke-width:0.3107;stroke-linecap:round;stroke-linejoin:round;stroke-miterlimit:10;}
	.st32{clip-path:url(#SVGID_00000146472241476225639830000017890354293214484662_);}
	.st33{filter:url(#Adobe_OpacityMaskFilter_00000075841669268609651910000004386330841601683859_);}
	.st34{mask:url(#SVGID_00000011744763739485353940000016334336194167728298_);}
	.st35{fill:url(#SVGID_00000016064511851945638270000008394379198408103577_);}
	.st36{opacity:0.7;fill:url(#SVGID_00000063609307705618249000000007514057892366131356_);}
	.st37{filter:url(#Adobe_OpacityMaskFilter_00000044150315196730720880000011084850206600103845_);}
	.st38{mask:url(#SVGID_00000034791176508451951260000009104845641232213438_);}
	.st39{fill:url(#SVGID_00000062879367246565488470000008420962864800890525_);}
	.st40{fill:url(#SVGID_00000076590116488822617270000014654006694483789479_);}
	.st41{fill:#21212B;}
	.st42{fill:#434357;}
	.st43{fill:url(#);stroke:#261F1C;stroke-width:0.5;stroke-linecap:round;stroke-linejoin:round;stroke-miterlimit:10;}
	.st44{fill:url(#SVGID_00000026873201269845338240000007357256791007632034_);}
	.st45{fill:#003D7C;stroke:#261F1C;stroke-width:0.2822;stroke-linecap:round;stroke-linejoin:round;stroke-miterlimit:10;}
	.st46{fill:#FFFFFF;stroke:#261F1C;stroke-width:0.2822;stroke-linecap:round;stroke-linejoin:round;stroke-miterlimit:10;}
	.st47{fill:#0A111C;}
	.st48{fill:url(#SVGID_00000091004609945896488520000007296720726926008765_);}
	.st49{fill:none;stroke:#0A111C;stroke-width:0.5;stroke-linecap:round;stroke-linejoin:round;stroke-miterlimit:10;}
	.st50{fill:#003D7C;stroke:url(#);stroke-width:0.1051;stroke-linecap:round;stroke-linejoin:round;stroke-miterlimit:10;}
	.st51{fill:#003D7C;stroke:#261F1C;stroke-width:0.2627;stroke-linecap:round;stroke-linejoin:round;stroke-miterlimit:10;}
	.st52{fill:#D00A10;stroke:#261F1C;stroke-width:0.2627;stroke-linecap:round;stroke-linejoin:round;stroke-miterlimit:10;}
	.st53{fill:#245F8F;}
	.st54{opacity:0.6;fill:#FFFFFF;}
	.st55{opacity:0.7;}
	.st56{fill:#2E2E2E;}
	.st57{opacity:0.7;fill:#FFFFFF;}
	.st58{filter:url(#Adobe_OpacityMaskFilter_00000027567974181112847750000003909840879346912951_);}
	.st59{mask:url(#SVGID_00000018945704532745893310000011932170898370002363_);}
	.st60{filter:url(#Adobe_OpacityMaskFilter_00000009563974663292693080000009686441923239545491_);}
	.st61{mask:url(#SVGID_00000052808035349243902800000016010413798237988783_);}
	.st62{fill:url(#SVGID_00000084511848305502111380000007739799829211281582_);}
	.st63{opacity:0.7;fill:url(#SVGID_00000070798669820629356980000017519827067079682227_);}
	.st64{fill:url(#SVGID_00000092417043178063982140000001751565590469761196_);}
	.st65{fill:url(#SVGID_00000013183743385211771660000004084537220504556692_);}
	.st66{clip-path:url(#SVGID_00000068652203293909689200000005129718383416502688_);}
	.st67{fill:url(#SVGID_00000069371383917514110620000008338929647283052434_);}
	.st68{clip-path:url(#SVGID_00000135682306859944990540000015846734944040180101_);}
	.st69{filter:url(#Adobe_OpacityMaskFilter_00000056389560097506585850000008113414829599844766_);}
	.st70{mask:url(#SVGID_00000062905475980708724910000002814038535798859159_);}
	.st71{filter:url(#Adobe_OpacityMaskFilter_00000164489498027830729470000005284211748421594496_);}
	.st72{mask:url(#SVGID_00000169533199184727588150000017750877883564770991_);}
	.st73{filter:url(#Adobe_OpacityMaskFilter_00000071549454602545315840000017273495713052230314_);}
	.st74{mask:url(#SVGID_00000059989549977598150440000008542074484680944030_);}
	.st75{fill:url(#SVGID_00000044865105050851973490000012800031254593083525_);}
	.st76{opacity:0.7;fill:url(#SVGID_00000124148104250309367820000016323359751107562374_);}
	.st77{fill:url(#SVGID_00000112612449013710215400000011564697605668393639_);}
	.st78{fill:url(#SVGID_00000057126783557779082580000014052824525059500208_);}
	.st79{clip-path:url(#SVGID_00000037690030172877233200000008389017963102769821_);}
	.st80{fill:url(#SVGID_00000065073762508873620440000015919018556574300043_);}
	.st81{clip-path:url(#SVGID_00000080908860468447499110000013027431181420187050_);}
	.st82{filter:url(#Adobe_OpacityMaskFilter_00000129900246960557221210000013339260270742253457_);}
	.st83{mask:url(#SVGID_00000008843348556325751910000002046530039355919267_);}
	.st84{fill:#856824;}
	.st85{fill:#FFFFFF;stroke:#261F1C;stroke-width:0.2095;stroke-linecap:round;stroke-linejoin:round;stroke-miterlimit:10;}
	.st86{fill:#FFFFFF;stroke:#261F1C;stroke-width:0.2047;stroke-linecap:round;stroke-linejoin:round;stroke-miterlimit:10;}
	.st87{fill:url(#SVGID_00000018924116712737410940000011922689873721587115_);}
	.st88{fill:url(#SVGID_00000166677170857322770740000013544138643358889644_);}
	.st89{fill:url(#SVGID_00000011728225266421377660000008439216677671372689_);}
	.st90{fill:url(#SVGID_00000080182484359026503060000007159625048352765832_);}
	.st91{clip-path:url(#SVGID_00000096768375654633669980000018444651591236183215_);}
	.st92{filter:url(#Adobe_OpacityMaskFilter_00000083772955439308083900000004301581455635471750_);}
	.st93{mask:url(#SVGID_00000019641466544629010260000002190839833391473584_);}
	.st94{fill:url(#SVGID_00000046313673554794797910000003389110090463503789_);}
	.st95{clip-path:url(#SVGID_00000035529272597678458410000018107625328479806608_);}
	.st96{filter:url(#Adobe_OpacityMaskFilter_00000150084670707989314850000003987102973176408977_);}
	.st97{mask:url(#SVGID_00000018938230295240379940000008992098586504012935_);}
	.st98{fill:url(#SVGID_00000167365294917908137510000009675405445189218739_);}
	.st99{opacity:0.7;fill:url(#SVGID_00000030486152121624724290000015794754013584280503_);}
	.st100{filter:url(#Adobe_OpacityMaskFilter_00000029765569575103203720000012294800699604208800_);}
	.st101{mask:url(#SVGID_00000137092102647468489310000000224034744933040805_);}
	.st102{fill:url(#SVGID_00000054250152628127880260000001257268530622936448_);}
	.st103{fill:url(#SVGID_00000172401985311090902100000015591177806386121893_);}
	.st104{fill:url(#SVGID_00000074432813971433946660000004809640694474025368_);}
	.st105{fill:url(#SVGID_00000029045217658621445060000001933702606655098266_);}
	.st106{filter:url(#Adobe_OpacityMaskFilter_00000011712581962274505430000002164350144361265594_);}
	.st107{mask:url(#SVGID_00000160178244659508042780000014762375305147270307_);}
	.st108{filter:url(#Adobe_OpacityMaskFilter_00000130645505632432455520000010015334772886453405_);}
	.st109{mask:url(#SVGID_00000046327296997315370260000009974431736311876016_);}
	.st110{filter:url(#Adobe_OpacityMaskFilter_00000054224537777787742330000000456973546805930160_);}
	.st111{mask:url(#SVGID_00000094611499309980347500000008259542765093642395_);}
	.st112{fill:#00002C;}
	.st113{fill:#790000;}
	.st114{fill:#A90000;}
	.st115{fill:#646464;}
	.st116{fill:#414141;}
	.st117{fill:#464646;}
	.st118{fill:#D7D7D7;}
	.st119{fill:#A5AAAF;}
	.st120{fill:#C90000;}
	.st121{fill:#7C0000;}
	.st122{fill:#3C3C3C;}
	.st123{fill:#6E6E6E;}
	.st124{fill:#F00000;}
	.st125{fill:#A20000;}
	.st126{fill:#FFC000;}
	.st127{fill:#E3E3E3;}
	.st128{fill:#000020;}
	.st129{fill:#C7902F;}
	.st130{fill:#A26800;}
	.st131{fill:#C6DDE4;}
	.st132{fill:#DCDCDC;}
	.st133{fill:#142959;}
	.st134{fill:#EAEFFF;}
	.st135{fill:#9FE0FF;}
	.st136{fill:#D1E3FF;}
	.st137{fill:#145177;}
	.st138{fill:#CDCDCD;}
	.st139{fill:#FF0000;}
	.st140{fill:#00009A;}
	.st141{fill:#608BA2;}
	.st142{fill:#F3F9FF;}
	.st143{fill:#8BB6CF;}
	.st144{fill:#335168;}
	.st145{fill:#E8891E;}
	.st146{fill:#C3C3C3;}
	.st147{fill:#90AABE;}
	.st148{fill:#00A2FF;}
	.st149{fill:#FF2400;}
	.st150{fill:#E1E1E1;}
	.st151{fill:#D2D2D2;}
	.st152{fill:#969696;}
	.st153{fill:#AAAAAA;}
	.st154{fill:#F8F8F8;}
	.st155{fill:#BD0E00;}
	.st156{fill:#FF905E;}
	.st157{fill:#FF7200;}
	.st158{fill:#FFD400;}
	.st159{fill:#007CFF;}
	.st160{fill:#00C0FF;}
	.st161{fill:#6F8395;}
	.st162{fill:#FF777C;}
	.st163{fill:#93DEFF;}
	.st164{fill:#5AABFF;}
	.st165{fill:#744C00;}
	.st166{fill:#669A00;}
	.st167{fill:#A9D800;}
	.st168{fill:#386900;}
	.st169{fill:#578600;}
	.st170{fill:#86B100;}
	.st171{fill:#C2E000;}
	.st172{fill:#99C200;}
	.st173{fill:#D1EF00;}
	.st174{fill:#789F00;}
	.st175{fill:#B8DC00;}
	.st176{fill:#DBFF00;}
	.st177{fill:#666B72;}
	.st178{fill:#42474C;}
	.st179{fill:#FFE293;}
	.st180{fill:#F1871D;}
	.st181{fill:#6D6B6D;}
	.st182{fill:#C00A10;}
	.st183{fill:#1A1A1A;}
</style>
<g>
	<path class="st182" d="M575.5,408.8c0-5.3,0.3-10.6-0.1-15.9c-0.9-14.6-11.4-24.8-25.4-24.8c-14,0-24.7,10.2-25.4,24.7
		c-0.5,10.6-0.5,21.2,0,31.8c0.6,14.6,11.4,24.9,25.3,24.9c13.9,0,24.5-10.2,25.4-24.8C575.8,419.5,575.5,414.1,575.5,408.8z"/>
	<g>
		<path class="st182" d="M502.4,772.2c0,36.7,0,72.8,0,109.3c12.8,0,25.2,0,37.7,0c0-36.8,0-72.9,0-109.3
			C527.4,772.2,515.3,772.2,502.4,772.2z"/>
		<path class="st182" d="M600.5,881.6c0-36.8,0-73.1,0-109.2c-12.9,0-25.2,0-37.5,0c0,36.7,0,72.8,0,109.2
			C575.9,881.6,588.2,881.6,600.5,881.6z"/>
	</g>
	<g>
		<path class="st183" d="M929.3,880.4c-4.9,11.2-13.7,14.7-25.6,14.7c-192.3-0.2-384.6-0.1-576.9-0.1c-14.4,0-17.6-3.2-17.6-17.3
			c0-10.6,0-21.2,0-32.3c-45.4,0-90.1,0-135.2,0c0,8.6,0,17.2,0,26.8c2.7,0,5.4,0,8,0c26.3,0,52.7,0,79,0c2.8,0,5.6-0.1,8.3,0.4
			c5.7,1.1,8.8,4.9,9,10.6c0.1,5.7-2.8,9.7-8.5,11.1c-2.7,0.6-5.5,0.7-8.3,0.7c-28.6,0-57.3,0.1-85.9,0c-18.5,0-25-6.7-25-25.3
			c0-8.1,0-16.2,0-24.3c0-15.6,6.1-22.2,21.5-23.4c1.2-0.1,2.5-0.3,4.8-0.5c0-8.7,0.2-17.2-0.2-25.7c-0.1-1.6-2.4-3.5-4.2-4.5
			c-14.9-7.9-22.1-20.2-22-37c0.1-22,0.1-44.1,0-66.1c-0.1-16.8,7.2-29,21.8-37.2c2.1-1.2,4.4-4.3,4.4-6.6
			c0.2-45.9,0.2-91.7,0.1-137.6c0-1-0.3-1.9-0.5-3.4c-2.6-0.1-5.1-0.1-7.5-0.4c-10.5-1-17.9-8.4-18.2-19c-0.3-12.2-0.4-24.3,0-36.5
			c0.4-11.6,8.7-18.9,21.2-18.9c39-0.1,78,0,117.1,0c41.8,0,83.6,0,125.4,0c2.7,0,5.4,0,8.9,0c0-5.6,0-10.4,0-15.1c0-19,0.1-38,0-57
			c-0.1-17.8,7-31.6,21.6-42c26.2-18.7,52-37.8,78.2-56.5c4-2.8,5.5-5.8,5.4-10.7c-0.3-16.5-0.2-32.9,0-49.4
			c0.1-9.6,6.5-14.9,14.5-12.7c6.5,1.8,8.3,6.9,8.3,12.9c0,16,0.3,31.9-0.1,47.9c-0.1,5.7,1.6,9.2,6.3,12.5
			c25.4,18,50.3,36.7,75.8,54.6c16.1,11.3,23.4,26.3,23.2,45.9c-0.4,37-0.1,74-0.1,111c0,3,0,6,0,9.6c83.3,0,166,0,249.3,0
			c0-8.9,0-18.1,0-28.2c-2.9,0-5.9,0-8.8,0c-64.1,0-128.2,0-192.3,0c-2.5,0-5.1,0.3-7.6-0.3c-6.2-1.3-10-5.1-9.7-11.7
			c0.3-6.5,4.1-10.1,10.6-10.8c2.3-0.2,4.6-0.1,6.8-0.1c66.1,0,132.3,0.2,198.4-0.2c11.9-0.1,20.6,3.2,26,13.9c0,15.2,0,30.4,0,45.6
			c-4.4,11.9-13.5,16.2-25.2,15.2c-0.5,1.1-0.9,1.5-0.9,1.9c-0.1,46.8-0.2,93.5-0.1,140.3c0,1.6,1.3,4.2,2.6,4.8
			c12.6,5.4,19.3,15.6,23.7,27.9c0,28.4,0,56.8,0,85.1c-3.9,12.8-10.8,23.1-23.4,28.8c-1.3,0.6-2.7,2.5-2.8,3.8
			c-0.3,8.4-0.1,16.9-0.1,26.1c12.7-1.1,21.5,3.3,26.4,14.3C929.3,851,929.3,865.7,929.3,880.4z M425,641.5c0,77.3,0,153.5,0,230.1
			c14.1,0,27.8,0,42.2,0c0-3.3,0-6,0-8.8c0-32.2,0-64.4,0-96.5c0-18.6,8.8-27.3,27.6-27.3c30.7,0,61.3,0,92,0
			c17.1,0,26.1,9.2,26.2,26.4c0,32.7,0,65.4,0,98.1c0,2.7,0,5.3,0,8.2c14.6,0,28.2,0,42,0c0-76.8,0-153.2,0-230.2
			c-3.3,0-6.1,0-8.8,0c-30.9,0-61.8,0-92.7,0c-10.1,0-15.5-4.1-15.4-11.6c0.1-7.5,5.2-11.2,15.6-11.2c23.8,0,47.6,0,71.5,0
			c2.7,0,5.4-0.2,8.3-0.4c0.2-2.1,0.5-3.6,0.5-5.1c0-85.9,0-171.8,0-257.7c0-9.3-3.8-16.4-11.4-21.9c-25.7-18.5-51.4-37-76.8-55.8
			c-4.4-3.3-7-2.8-11.1,0.3c-24.7,18.2-49.4,36.3-74.5,53.9c-9.7,6.8-13.7,15.3-13.7,26.9c0.2,83.6,0.1,167.3,0.1,250.9
			c0,2.7,0,5.4,0,8.9c3.7,0,6.4,0,9.1,0c13.2,0,26.4-0.1,39.5,0.1c7.2,0.1,11.7,4.7,11.7,11.2c0,6.2-4.3,10.7-11,11.4
			c-3,0.3-6.1,0.1-9.1,0.1C466.4,641.5,446.2,641.5,425,641.5z M309.3,821.5c0-8.6,0.3-16.6-0.2-24.7c-0.1-1.8-2.4-4.1-4.3-5.1
			c-14.7-7.6-22.3-19.5-22.4-36c-0.2-23.1-0.4-46.1,0.1-69.2c0.4-23,17-39.1,38.9-38.9c21.7,0.2,37.7,17.1,37.8,40
			c0.1,22.3-0.1,44.6,0.1,66.9c0.1,17.2-7.5,29.4-22.7,37.3c-1.9,1-4.1,3.3-4.2,5.1c-0.5,8-0.2,16-0.2,24.3c23.7,0,46.5,0,69.7,0
			c0-3.7,0-6.7,0-9.8c0-55,0-109.9,0-164.9c0-12,4.1-21.6,15.8-25.9c5.2-1.9,6.1-4.5,6.1-9.3c-0.2-33.4-0.1-66.9-0.1-100.3
			c0-2.4-0.3-4.8-0.5-7.3c-74.5,0-148.4,0-222.2,0c-0.3,1.1-0.7,1.8-0.7,2.5c-0.1,46.1-0.1,92.2,0.1,138.3c0,2,2.2,5,4.2,5.9
			c15.8,7.7,23.4,20.4,23.4,37.7c0.1,22,0.1,44.1,0,66.1c0,17.3-7.6,30-23.3,37.8c-1.8,0.9-4.2,2.8-4.2,4.4
			c-0.4,8.2-0.2,16.5-0.2,25.1C237,821.5,272.8,821.5,309.3,821.5z M748.1,821.5c0-7.8-0.3-14.6,0.1-21.4c0.3-4.7-1.3-7-5.7-9.2
			c-13.6-6.7-21.2-18-21.4-33.3c-0.4-24.3-0.3-48.6,0-73c0.2-16.3,11-30.4,26.4-35.3c25-8.1,49.5,9.7,50.2,37.1
			c0.6,22.5,0.1,45.1,0.2,67.6c0,17.4-7.4,30.1-23.1,37.9c-1.5,0.8-3.6,2.6-3.6,4c-0.3,8.5-0.2,17-0.2,25.4c37,0,72.8,0,109.2,0
			c0-7.7-0.2-14.8,0.1-21.8c0.2-4.1-1.2-6.2-5.1-8c-14.7-6.8-22.4-18.8-22.7-34.9c-0.4-23.6-0.4-47.1,0-70.7
			c0.3-16.1,7.9-28.1,22.7-34.9c4.4-2,5.1-4.6,5.1-8.7c-0.1-44.1,0-88.2-0.1-132.2c0-2.2-0.3-4.3-0.5-6.4c-74.6,0-148.5,0-222.9,0
			c0,37.4,0,74.4,0.1,111.3c0,1.5,1.6,3.8,3,4.2c14.7,5,18.7,15.9,18.7,30.3c-0.3,54.2-0.1,108.4-0.1,162.6c0,3,0,6,0,9.3
			C701.7,821.5,724.4,821.5,748.1,821.5z M423.3,452.1c-83.5,0-166.4,0-249.2,0c0,9.6,0,18.6,0,27.7c83.3,0,166.1,0,249.2,0
			C423.3,470.4,423.3,461.6,423.3,452.1z M490.4,762.2c0,36.7,0,72.8,0,109.3c12.8,0,25.2,0,37.7,0c0-36.8,0-72.9,0-109.3
			C515.4,762.2,503.3,762.2,490.4,762.2z M589.5,871.6c0-36.8,0-73.1,0-109.2c-12.9,0-25.2,0-37.5,0c0,36.7,0,72.8,0,109.2
			C564.9,871.6,577.2,871.6,589.5,871.6z M771.3,871.6c45.1,0,89.9,0,134.8,0c0-9.1,0-17.6,0-26.3c-45.1,0-89.7,0-134.8,0
			C771.3,854.2,771.3,862.7,771.3,871.6z M205.1,721.9c0-11.1,0.1-22.3,0-33.4c-0.2-11.4-6.4-18.2-16.1-18
			c-9.4,0.2-15.2,7-15.3,17.9c-0.1,21.8-0.1,43.6,0,65.3c0,11.2,6.3,18.5,15.6,18.6c9.4,0,15.6-7.2,15.8-18.5
			C205.2,743.1,205.1,732.5,205.1,721.9z M906.5,721.3c0-11.1,0.1-22.3,0-33.4c-0.1-10.4-6-17.1-15-17.5
			c-9.5-0.3-16.2,6.2-16.3,16.9c-0.2,22.5-0.2,45.1,0,67.6c0.1,10.6,7,17.6,16.2,17.3c8.9-0.3,15-7.3,15.1-17.5
			C906.6,743.6,906.5,732.5,906.5,721.3z M743.7,721.4c0,11.1-0.1,22.3,0,33.4c0.1,10.2,6.2,17.2,15.1,17.5
			c8.9,0.3,15.9-6.4,16-16.6c0.3-23,0.3-46.1,0-69.1c-0.1-10.2-6.9-16.5-16.2-16.1c-8.8,0.3-14.7,6.8-14.9,16.7
			C743.6,698.6,743.7,710,743.7,721.4z M336.4,721c0-11.1,0.1-22.3,0-33.4c-0.1-10.4-6.1-17-15.3-17.1c-9.2-0.1-15.7,6.2-15.8,16.6
			c-0.3,22.8-0.3,45.6,0,68.4c0.1,10.2,6.8,17,15.7,16.9c8.8-0.1,15.3-7.1,15.4-17.1C336.5,743.7,336.4,732.3,336.4,721z
			 M401.4,871.6c0-9.1,0-17.6,0-26.4c-23.1,0-45.7,0-68.8,0c0,8.9,0,17.4,0,26.4C355.5,871.6,378.1,871.6,401.4,871.6z M747.7,845.4
			c-23.2,0-46,0-68.9,0c0,9.1,0,17.5,0,26c23.3,0,46.1,0,68.9,0C747.7,862.4,747.7,854.1,747.7,845.4z"/>
		<path class="st183" d="M588.2,398.3c0,6.1,0.5,12.2-0.1,18.2c-2.5,26-22.5,44.7-47.8,44.8c-25,0.1-45.5-18-48-43.7
			c-1.2-13-1.2-26.4-0.1-39.5c2.4-26.7,23.5-44.7,49.9-43.9c25,0.7,44.5,20.4,46.1,46.5c0.3,5.8,0.1,11.6,0.1,17.5
			C588.2,398.3,588.2,398.3,588.2,398.3z M565.5,397.8c0-5.3,0.3-10.6-0.1-15.9c-0.9-14.6-11.4-24.8-25.4-24.8
			c-14,0-24.7,10.2-25.4,24.7c-0.5,10.6-0.5,21.2,0,31.8c0.6,14.6,11.4,24.9,25.3,24.9c13.9,0,24.5-10.2,25.4-24.8
			C565.8,408.5,565.5,403.1,565.5,397.8z"/>
		<path class="st183" d="M539.7,515.7c-17.2,0-34.4,0.1-51.6,0c-9,0-13.9-4.2-13.8-11.5c0.1-7.1,5.1-11.3,14.1-11.3
			c34.4-0.1,68.8-0.1,103.2,0c9,0,14,4.1,14.1,11.2c0.1,7.4-4.9,11.5-14.5,11.5C574.1,515.7,556.9,515.7,539.7,515.7z"/>
		<path class="st183" d="M539.9,561.3c-17.5,0-34.9,0.1-52.4,0c-8.5,0-13.2-4.1-13.2-11.2c0-7,4.8-11.5,13.1-11.5
			c35.2-0.1,70.3-0.1,105.5,0c8.2,0,13,4.8,12.8,11.8c-0.2,6.8-4.7,10.8-12.8,10.9C575.3,561.4,557.6,561.3,539.9,561.3z"/>
		<path class="st183" d="M540.5,676.4c6.8,0,13.7-0.1,20.5,0c6.5,0.1,10.4,3.5,11.2,10.1c0.7,6.3-3.1,11.9-9.7,12.2
			c-14.9,0.6-29.9,0.6-44.8,0c-6.6-0.3-10.4-5.9-9.7-12.2c0.8-6.5,4.7-9.9,11.2-10C526.3,676.3,533.4,676.4,540.5,676.4z"/>
		<path class="st183" d="M323.1,570.8c0,7.1,0.1,14.1,0,21.2c-0.2,6.8-4.1,10.8-10.7,11.5c-6.1,0.6-11.6-4.3-11.8-11.2
			c-0.4-14.1-0.3-28.2,0-42.4c0.2-6.7,4.4-10.7,11.1-11.1c6.2-0.4,11,4.6,11.3,11.6C323.4,557.1,323.1,564,323.1,570.8z"/>
		<path class="st183" d="M385.4,571.6c0,6.8,0.2,13.6-0.1,20.4c-0.3,6.7-4.8,11.2-10.7,11.5c-5.9,0.2-11.4-4.1-11.6-10.6
			c-0.4-14.6-0.4-29.3,0.1-43.9c0.2-6.4,6-11,11.8-10.3c6.2,0.8,10.2,4.3,10.5,10.9C385.6,557,385.4,564.3,385.4,571.6
			C385.4,571.6,385.4,571.6,385.4,571.6z"/>
		<path class="st183" d="M260.9,571.4c0,6.8,0.2,13.6-0.1,20.4c-0.3,7-5.2,11.7-11.4,11.6c-5.9-0.1-10.9-4.6-11.1-11.2
			c-0.4-14.1-0.3-28.2,0-42.4c0.1-6.7,4.3-10.7,11-11.2c6.1-0.5,11.1,4.5,11.4,11.5C261.1,557.3,260.8,564.4,260.9,571.4z"/>
		<path class="st183" d="M787.7,571.2c0,6.6,0.2,13.1,0,19.7c-0.3,7.6-5,12.6-11.4,12.6c-6.5,0-11.2-5-11.3-12.5
			c-0.2-13.4-0.2-26.8,0-40.1c0.1-7.2,4.5-11.9,10.8-12.2c6.4-0.3,11.5,4.7,11.9,12.1C787.9,557.6,787.7,564.4,787.7,571.2z"/>
		<path class="st183" d="M702.6,571c0-6.8-0.2-13.6,0-20.4c0.2-7.1,4.9-11.8,11.1-11.9c6.2-0.1,11.3,4.7,11.5,11.7
			c0.3,13.9,0.3,27.8,0,41.6c-0.2,7-5.4,11.7-11.6,11.5c-6.2-0.2-10.8-5-11-12.1C702.5,584.6,702.6,577.8,702.6,571z"/>
		<path class="st183" d="M827.2,571c0-6.8-0.2-13.6,0-20.4c0.2-7.1,4.9-11.8,11.1-11.9c6.1-0.1,11.3,4.7,11.5,11.7
			c0.3,13.9,0.3,27.8,0,41.6c-0.2,7-5.4,11.7-11.6,11.5c-6.2-0.2-10.6-5-11-12c0-0.5,0-1,0-1.5C827.2,583.6,827.2,577.3,827.2,571
			C827.2,571,827.2,571,827.2,571z"/>
	</g>
</g>
</svg>
