<?xml version="1.0" encoding="utf-8"?>
<!-- Generator: Adobe Illustrator 26.0.3, SVG Export Plug-In . SVG Version: 6.00 Build 0)  -->
<svg version="1.1" id="Capa_1" xmlns="http://www.w3.org/2000/svg" xmlns:xlink="http://www.w3.org/1999/xlink" x="0px" y="0px"
	 viewBox="0 0 1080 1080" style="enable-background:new 0 0 1080 1080;" xml:space="preserve">
<style type="text/css">
	.st0{fill:#FFFFFF;}
	.st1{fill:none;stroke:#000000;stroke-width:18;stroke-miterlimit:10;}
	.st2{fill:#C00A10;}
	.st3{fill:none;stroke:#000000;stroke-width:12;stroke-linecap:square;stroke-linejoin:round;stroke-miterlimit:10;}
	.st4{fill:none;}
	.st5{fill:none;stroke:#F7931E;stroke-miterlimit:10;}
</style>
<g>
	<path class="st2" d="M877.3,713.9c-0.7,2.1-1.4,4.1-2.1,6.2c-3.4,10.1-9.4,18-19,23.4c-63.8,35.9-127.5,72.1-191.3,108.2
		c-17.1,9.7-35.6,15.1-55.3,15.2c-53.6,0.2-107.2,0.1-160.8,0.1c-15.6,0-30.3-4.4-44.7-9.8c-29.8-11.2-59.5-22.3-89.3-33.4
		c-2-0.7-4.1-1.3-6.5-2.1c-0.3,14.3-5.9,24.8-18.9,30.2c-3.5,1.5-7.7,1.9-11.6,1.9c-14.9,0.2-29.9,0.2-44.8,0.1
		c-18.3-0.2-30.4-12.4-30.4-30.8c0-73.8,0-147.6,0-221.4c0-18,11.8-30.4,29.8-30.9c15.1-0.4,30.3-0.4,45.5,0
		c18,0.4,29.7,12.5,30.2,30.6c0,1.5,0.2,3,0.3,4.5c0.8,0.3,1.4,0.6,2,0.7c12.6,1.1,25.2,2.1,37.6,3.2c-1.1-13.2-3-26.7-3.1-40.1
		c-0.8-65.5,23.2-120.6,70.9-165.3c4.1-3.8,5.8-7.5,5.6-13c-0.4-10.7-0.4-21.5,0-32.3c0.2-4.6-1.6-6.4-5.6-8
		c-19.4-7.5-38.7-15.4-58.1-22.9c-8.2-3.2-13.2-8.5-13.6-17.4c-0.3-7.9,4.4-14,13.4-17.5c66-26.2,132.1-52.2,198.1-78.4
		c6.6-2.6,12.8-1.5,19.1,1.1c47.3,18.8,94.6,37.5,141.9,56.2c17.5,6.9,35.1,13.8,52.6,20.8c10.8,4.3,14.3,9.4,14.4,21
		c0,9.2,0.1,18.5-0.1,27.7c-0.1,3.5,0.7,5.5,4.4,6.8c5.9,2.1,9.6,6.8,10.8,13.1c2.1,10.5,4.5,21,6.1,31.7c1.8,12-6.1,21.2-18.2,21.6
		c-8.8,0.3-17.6,0.4-26.3,0c-12.3-0.6-19.9-10.4-17.7-22.6c1.8-9.9,3.8-19.8,5.6-29.7c1.1-6,4-11.2,9.6-13.3c5.7-2,6.6-5.3,6-10.4
		c-0.3-2.3,0-4.6,0-8c-13.2,5.2-25.4,9.9-37.6,14.8c-6.5,2.6-15.6,3.7-18.7,8.5c-3.4,5.1-0.4,14-1.4,21.1
		c-2.5,16.6,4.2,27.8,15.8,39.8c46.9,48.6,66.2,107.5,59.6,174.7c-4.1,41.2-19.6,78-44.8,110.8c-0.5,0.7-1,1.4-2.6,3.9
		c3.4-1.4,5.2-2.1,6.9-2.9c23.9-10.5,47.6-21.4,71.7-31.3c7.9-3.2,17-5.5,25.4-5.3c18.4,0.5,30.2,11.3,36.8,28.2
		c0.9,2.2,1.7,4.4,2.5,6.6C877.3,704.2,877.3,709,877.3,713.9z M402.9,628.7c0.1-0.4,0.3-0.9,0.2-1.2c-0.3-1.1-0.7-2.1-1-3.1
		c-6.5-18.1-10-36.8-10.3-56.1c-0.4-24.5,4.1-48,13.8-70.5c2.9-6.7,7.9-9.1,13.5-6.7c5.4,2.3,7.2,7.8,4.7,14.4c-0.4,1-0.8,2-1.2,3
		c-15.4,39.5-14.2,78.6,1.3,118c7.2,18.4,19.5,28.3,38.2,31.5c0.9,0.2,1.7,0.4,2.6,0.5c32.7,3.9,65.4,7.7,98,11.9
		c11.9,1.5,24.1,2.8,35.6,6c13.9,3.9,24.3,13.6,32.4,25.8c19.6-9.7,35.9-22.7,49.8-38.9c2.1-2.4,4.7-4.9,7.5-5.9
		c4.3-1.5,8.3,0.1,10.7,4.2c2.7,4.6,1.5,8.8-1.8,12.7c-14.9,18-32.6,32.5-53.2,43.5c-2,1.1-4.6,3.4-4.6,5.2c0,7.2,0.9,14.4,1.5,22.8
		c14-6.7,29.2-11.4,41.3-20.2c98.6-72.2,108.9-215.2,22.5-301.5c-5.1-5.1-10.2-7.8-17.7-7.2c-9.6,0.8-19.3,0.2-29,0.2
		c-1.5,0-3.1,0.4-5.6,0.7c3.7,2.5,6.4,4.3,9.1,6.2c65.6,45,92.1,131,62.8,204.1c-2.9,7.3-7.6,10.1-13.5,8c-5.7-2-7.6-7.5-5.1-14.8
		c0.3-0.8,0.6-1.6,0.9-2.5c29.7-79.8-12.1-168.9-92.4-196.8c-6.8-2.4-14-4.4-21-4.7c-19.5-0.6-39.1-0.3-58.6-0.2
		c-3,0-6.1,0.5-9.1,1.3c-30.4,8-55.8,24-76.6,47.5c-5.4,6.1-10.5,7-15.4,2.9c-5-4.2-5.3-10.3,0.8-16c11.7-10.9,24-21.1,36.1-31.5
		c1.4-1.2,2.9-2.2,4.4-3.2c-14.2-1.3-27.9-1.4-41.7-1.2c-1.7,0-3.7,1.4-4.9,2.7c-7.8,8.3-16.1,16.3-22.9,25.4
		c-37,49.5-48.3,104.7-35.8,165c0.5,2.5,1.9,5.9,3.9,6.8C382.9,621.2,392.9,624.8,402.9,628.7z M308.9,626.4c-0.4,1.2-0.7,1.6-0.7,2
		c-0.1,56,0,112-0.2,168c0,3.9,2.2,4.6,4.9,5.7c34.7,12.9,69.3,26.2,104.2,38.5c10.4,3.7,21.7,6.3,32.7,6.4
		c52.9,0.6,105.8,0.3,158.7,0.2c16.6,0,32.1-4.5,46.5-12.6c63.8-36,127.5-72.1,191.2-108.3c9.7-5.5,13.6-16.5,9.9-27.2
		c-3.8-10.9-13.6-16.8-24.8-14.5c-5.1,1.1-10.1,2.9-14.9,5c-59,25.9-117.9,52-177,77.8c-4.6,2-10.1,3.2-15.2,3.2
		c-59.1,0.2-118.1,0.1-177.2,0.1c-2,0-4,0.1-5.9-0.1c-5.6-0.6-8.9-3.9-9.1-9.4c-0.2-5.3,2.8-8.7,7.9-9.9c2.3-0.5,4.8-0.4,7.2-0.4
		c54.9,0,109.8,0,164.7,0c2.6,0,5.1,0,8.3,0c0-5.9,0-10.9,0-15.9c-0.1-20.9-16.1-39.7-37-42.3c-30.3-3.8-60.5-7.8-90.9-10.4
		c-29.6-2.6-57.4-9.7-82.4-26.3c-6-4-12.5-7.3-19-10.5C365.1,633.1,337.9,626.5,308.9,626.4z M686.4,397c0-13.2,0-25.7,0-38.2
		c0-20.6,0-20.5-19.1-27.8c-35-13.2-71-20.7-108.6-20.1c-37.8,0.6-73.6,10.2-108.6,23.7c-5.9,2.3-9,6.7-9,13.2c0,11.6,0,23.3,0,34.9
		c0,4.7,0,9.4,0,14.3C523.3,397,604.4,397,686.4,397z M288.3,712.5c0-36.6,0-73.3,0-109.9c0-8.6-3.3-12.1-11.8-12.2
		c-14-0.1-28.1-0.1-42.1,0c-8.6,0.1-11.9,3.5-11.9,12.1c0,73.3,0,146.6,0,219.8c0,8.3,3.3,11.6,11.5,11.7c13.6,0.1,27.2,0,40.8,0
		c10.8,0,13.6-2.7,13.6-13.6C288.3,784.4,288.3,748.5,288.3,712.5z M367.1,310.4c20,7.9,38.4,15.2,54.9,21.7
		c7.2-5.7,12.6-12.1,19.5-15c37.6-15.5,76.5-25.4,117.4-26c40-0.6,78.4,7.4,115.7,21.4c11.5,4.3,22.7,8.2,28.3,20.5
		c19.1-7.6,37.5-14.9,57-22.7c-2.9-1.3-4.3-1.9-5.7-2.5c-61.5-24.3-123.1-48.6-184.6-73.1c-4.2-1.7-7.6-1.8-11.8-0.1
		c-48.4,19.3-97,38.4-145.5,57.6C397.9,298.2,383.4,304,367.1,310.4z M779.4,365.3c-4.4,1-11.1,0.9-11.8,2.9
		c-2.8,8.3-3.7,17.2-5.4,25.9c8.2,0,15.3,0,22.7,0C783.1,384.5,781.3,375.6,779.4,365.3z"/>
	<path class="st2" d="M559,649.5c-14.5-0.2-27.8-3.7-39.8-11.9c-5.8-4-7.6-9.5-4.4-14.5c3.1-5,9-6,15-2c12.5,8.3,26.1,10.2,40.3,7.1
		c15.9-3.4,26.2-20.1,22.7-35.5c-2.1-9.5-8.5-14.9-17.1-18.5c-11.5-4.8-23.3-9.2-34.2-15c-19.3-10.3-26.4-25.6-22.1-44.4
		c4.5-19.5,19.6-32.3,40.1-34c14.1-1.2,27,2.2,38.4,10.6c5.7,4.2,7.1,10,3.7,14.8c-3.4,4.8-9.2,5.4-15,1.3
		c-9.6-6.8-19.9-8.8-31.2-5.8c-12.1,3.2-19.8,15.3-16.5,27.3c1,3.6,3.9,7.8,7.1,9.6c9.7,5.4,20,9.7,30,14.7c8,4,16.8,7.2,23.3,12.9
		c14.1,12.3,17.1,28.7,11.8,46.3c-5.8,19.2-18.7,31.3-38.5,35.6C568.2,648.9,563.6,649,559,649.5z"/>
</g>
</svg>
