<?xml version="1.0" encoding="utf-8"?>
<!-- Generator: Adobe Illustrator 26.0.3, SVG Export Plug-In . SVG Version: 6.00 Build 0)  -->
<svg version="1.1" id="Capa_1" xmlns="http://www.w3.org/2000/svg" xmlns:xlink="http://www.w3.org/1999/xlink" x="0px" y="0px"
	 viewBox="0 0 1080 1080" style="enable-background:new 0 0 1080 1080;" xml:space="preserve">
<style type="text/css">
	.st0{fill:#FFFFFF;}
	.st1{fill:none;stroke:#000000;stroke-width:18;stroke-miterlimit:10;}
	.st2{fill:#C00A10;}
	.st3{fill:none;stroke:#000000;stroke-width:12;stroke-linecap:square;stroke-linejoin:round;stroke-miterlimit:10;}
	.st4{fill:none;}
	.st5{fill:none;stroke:#F7931E;stroke-miterlimit:10;}
</style>
<path class="st2" d="M849.9,410c0-3,0-6.1-0.6-9.1c-2.9-16.1-15.4-25.8-33.7-25.8c-34.4-0.1-68.7,0-103.1,0c-2.3,0-4.7,0-7.5,0
	c0-9.3,0.2-17.5-0.1-25.8c-0.2-6-0.2-12.2-1.3-18.1c-6.6-35.2-35.8-59.4-72.1-59.6c-37-0.2-74-0.1-110.9-0.1
	c-24.7,0-49.3-0.2-74,0.1c-36,0.4-65.3,24.6-71.3,59.7c-2,11.6-1.1,23.8-1.5,35.7c-0.1,2.5,0,5.1,0,8.2c-3.3,0-5.7,0-8.1,0
	c-33.9,0-67.9,0.1-101.8,0c-12,0-22.4,3.4-29.3,13.7c-2.3,3.4-3.7,7.5-5.5,11.3c0,72.8,0,145.5,0,218.3c2.9,9.1,7.1,17.4,16.1,21.7
	c3.8,1.8,4.7,4,4.6,7.9c-0.1,40.8-0.1,81.7-0.1,122.5c0,1.8,0,3.6,0,5.5c0.1,21.1,12.9,34,34.1,34c105.8,0,211.5,0,317.3,0
	c6.3,0.2,11.3-5,11-10.9c-0.3-5.5-5.1-10-11-9.8c-176.7-0.7-303.1,0-315.4,0c-11.9,0-15.3-3.3-15.3-15c0-41,0-82.1,0-123.1
	c0-2,0-4,0-6.5c24.1,0,47.9,0,72.6,0c0,8.6,0,17.1,0,25.7c0,12.4,2.9,15.2,15.4,15.3c11.1,0,22.2,0.1,33.3,0
	c9.7-0.1,13.1-3.7,13.2-13.2c0.1-9.1,0-18.2,0-27.7c89.7,0,179.1,0,269.1,0c0,9.3,0,18.3,0,27.4c0,10,3.4,13.5,13.4,13.6
	c11.7,0.1,23.4,0.1,35.2,0c10-0.1,13.3-3.6,13.4-13.6c0-9,0-18.1,0-27.4c24.4,0,48.2,0,72.6,0c0,2.5,0,4.7,0,6.8
	c0,40.8,0,81.7,0,122.5c0,12.3-3.2,15.4-15.5,15.4c-23.4,0-46.7,0-70.1,0c-5.9-0.2-10.7,4.3-11,9.8c-0.3,5.8,4.7,11,11,10.8
	c36.1-0.2,62.5,0,72.4,0c3.2,0,6.5-0.3,9.6-1c11-2.6,18.8-9.3,22.2-20.1c1.4-4.3,1.9-9.1,1.9-13.7c0.1-42.4,0-84.9,0.2-127.3
	c0-2.2,1-5.5,2.6-6.4c12.8-6.9,18-17.6,18-31.8C849.8,543,849.9,476.5,849.9,410z M407.1,310.6c11-12.6,24.9-18.3,41.2-18.3
	c60.8-0.2,121.6-0.1,182.4,0c31.2,0,52.7,23.4,53.3,50c0.2,10.7,0,21.3,0,32.4c-6.9,0-13.5,0-20.5,0c0-9.7,0.1-19.3,0-28.9
	c-0.1-15.4-8.4-27.3-22-31.2c-4-1.1-8.4-1.6-12.5-1.6c-59.8-0.1-119.6-0.1-179.3-0.1c-22.1,0-34.9,13-34.8,35.2c0,8.7,0,17.3,0,26.7
	c-6.8,0-13,0-20.1,0C395.4,352.5,390.4,329.7,407.1,310.6z M642.8,374.6c-69.2,0-137.7,0-207.1,0c0-10.5-0.3-20.8,0.1-31
	c0.2-5.7,4-9.1,9.7-9.8c2-0.2,4-0.2,6-0.2c58.6,0,117.1,0,175.7,0c12.7,0,15.6,3,15.5,15.8C642.7,357.6,642.8,365.9,642.8,374.6z
	 M384.2,664.5c-7.1,0-13.4,0-20.6,0c0-3.5,0-6.8,0-10.2c0-13.1-0.1-26.2,0-39.3c0.1-7.4,4.5-12.4,10.5-12.2c6,0.2,10,4.8,10.1,12
	C384.3,631.3,384.2,647.8,384.2,664.5z M715.3,664.5c-7,0-13.4,0-20.1,0c-0.2-1.1-0.6-2.2-0.6-3.3c0-15.3-0.1-30.6,0-45.9
	c0-7.5,4.3-12.4,10.4-12.4c6.1,0,10.2,5,10.2,12.5C715.4,631.6,715.3,647.9,715.3,664.5z M829.2,436.9c0,57.2,0,114.4,0,171.6
	c0,11.7-3.1,14.9-14.6,14.9c-24,0-48.1,0-72.1,0c-2,0-3.9-0.2-6.6-0.3c0.8-13.2-0.6-25.4-11.7-34.1c-6-4.7-12.8-7.1-20.2-6.8
	c-18.9,0.7-27.8,12.6-30.4,40.8c-89.3,0-178.7,0-268.8,0c0-3.7,0.1-7.2,0-10.8c-0.8-17-14.7-30.3-31.2-30
	c-16.4,0.3-29.9,13.4-30.6,30c-0.2,3.4,0,6.8,0,11c-2.5,0.1-4.6,0.3-6.7,0.3c-24,0-48.1,0-72.1,0c-11.2,0-14.5-3.3-14.5-14.4
	c0-66.1,0-132.2,0-198.3c0-11.8,3.2-14.9,15.2-14.9c45.7,0,91.3,0,137,0c136.4,0,272.8,0,409.2,0c2.2,0,4.5-0.1,6.7,0.1
	c7.7,0.5,11.3,4.2,11.5,11.9C829.4,417.5,829.2,427.2,829.2,436.9z"/>
</svg>
