<?xml version="1.0" encoding="utf-8"?>
<!-- Generator: Adobe Illustrator 26.0.3, SVG Export Plug-In . SVG Version: 6.00 Build 0)  -->
<svg version="1.1" id="Capa_1" xmlns="http://www.w3.org/2000/svg" xmlns:xlink="http://www.w3.org/1999/xlink" x="0px" y="0px"
	 viewBox="0 0 1080 1080" style="enable-background:new 0 0 1080 1080;" xml:space="preserve">
<style type="text/css">
	.st0{fill:#FFFFFF;}
	.st1{fill:none;stroke:#000000;stroke-width:18;stroke-miterlimit:10;}
	.st2{fill:#C00A10;}
	.st3{fill:none;stroke:#000000;stroke-width:12;stroke-linecap:square;stroke-linejoin:round;stroke-miterlimit:10;}
	.st4{fill:none;}
	.st5{fill:none;stroke:#F7931E;stroke-miterlimit:10;}
</style>
<path class="st2" d="M157,336.2c3.5-11,5.6-22.7,10.7-33c19.5-39.6,51.9-61.7,96-62.2c96.8-1,193.6-0.8,290.4-0.1
	c58.6,0.4,104.9,47.7,106.2,106.4c0.5,22.6,0.1,45.3,0.1,67.9c0,2.7,0,5.4,0,8.9c3.7,0,6.6,0,9.5,0c47.3,0,94.6-0.2,141.8,0.1
	c53.3,0.3,95.9,34.6,107.3,86.1c1.8,7.9,2.4,16.3,2.4,24.4c0.2,41.1,0.2,82.1,0.1,123.2c-0.2,55.6-36.6,99.2-91.1,109.3
	c-4.6,0.9-9.3,1.1-15.3,1.8c1.3,12.8,2.3,25.4,4,37.8c3.6,26.7-16.9,43-42,33c-31.5-12.5-55.7-33.4-70.5-64.2
	c-2.5-5.3-5.5-7-11.3-6.9c-37.6,0.1-75.2,0.9-112.7-0.9c-52.3-2.5-96.1-47.2-98.7-99.4c-1.2-24.3-0.6-48.8-0.8-73.1
	c0-2.9,0-5.9,0-9.4c-2.7-0.2-4.9-0.4-7-0.4c-31.4,0-62.7,0.1-94.1-0.2c-5,0-7.5,1.6-9.6,6c-15,31.7-39.8,52.8-72.1,65.6
	c-23.6,9.4-44.5-7.3-41.1-32.4c1.5-11.6,2.5-23.2,3.7-34.9c0.1-1.2-0.1-2.4-0.1-1.7c-15.7-4.9-31.4-7.7-45.2-14.4
	c-33.6-16.2-53.1-43.9-59.3-80.8c-0.2-1.4-0.9-2.8-1.4-4.2C157,437.7,157,386.9,157,336.2z M483.1,555.5c0-7,0-12.9,0-18.8
	c0.1-19.4,3.7-38,13-55.3c3.1-5.7,7.9-10,14.3-8.7c4.5,0.9,10.3,4.3,12,8.1c1.9,4.2,0.6,10.4-0.5,15.4c-2.5,11.3-8,22.4-8.2,33.7
	c-0.9,46-0.5,92,0.1,138.1c0.2,14.8,6.6,28,15.7,39.6c16.7,21.5,39,31.4,66.1,31.4c37.8-0.1,75.7,0.2,113.5-0.2
	c10.2-0.1,16.3,4,19.8,13.4c2.5,6.7,5.6,13.3,9.4,19.4c12,19.4,29.2,32.7,51.3,41c-0.9-8.5-1.9-16.2-2.5-23.8
	c-0.7-7.7-1.2-15.4-1.5-23.1c-0.9-19.5,1.1-27.1,26.1-27.1c43.6,0,78.8-33.1,79.6-74.6c0.9-45,1-90.1-0.1-135.1
	c-0.7-28.4-15.2-49.7-39.6-64.4c-14.7-8.8-30.6-10.6-47.3-10.5c-63.7,0.2-127.4,0.1-191.1,0.1c-11.4,0-18.6-5.9-18.6-15
	c0-9.1,7-14.7,18.6-14.8c5.6,0,11.2,0,17.3,0c0-16.5,0.1-31.9,0-47.3c-0.1-12.9,1-26.1-1-38.7c-6.1-40.2-38.6-67.5-79.4-67.6
	c-68.9-0.1-137.9,0-206.8,0c-26.9,0-53.8-0.4-80.6,0.2c-39.9,0.9-74.6,34.6-75.5,74.3c-0.9,45.3-1.1,90.6,0.1,135.9
	c0.7,28.4,15.5,49.6,39.9,64.2c14.9,8.9,31.2,10.7,48.1,10.5c11.9-0.1,17.6,5.5,17.5,17.3c-0.1,10.2-0.6,20.4-1.3,30.5
	c-0.6,8.3-1.6,16.6-2.6,25.7c2.7-1,4.3-1.5,5.8-2.2c24.9-11.2,43.1-28.9,53.5-54.4c6.5-15.9,8-16.9,25.4-16.9c23.1,0,46.3,0,69.4,0
	C456,555.5,468.9,555.5,483.1,555.5z"/>
<path class="st2" d="M374,442.2c-7.8-12.9-15.3-24.9-22.3-37.2c-5.3-9.4-3.2-18.1,4.9-22.5c7.7-4.2,15.7-1.2,21.1,8
	c5.5,9.4,11.1,18.7,17,28.7c12.7-17.1,22.4-34.2,27.2-54.9c-3.3-0.2-5.9-0.4-8.5-0.4c-25.9,0-51.7,0-77.6,0c-2.2,0-4.5,0-6.7,0
	c-13.5-0.1-20.7-5.4-20.6-15.1c0.2-9.6,7.1-14.7,20.2-14.7c14.2,0,28.4,0,42.5,0c2.7,0,5.3,0,8.4,0c0.5-9,0.4-17.2,1.4-25.2
	c0.9-7.1,6.4-11.4,13.3-11.7c7-0.3,12.1,3,14.5,9.4c1.2,3.1,1,6.8,1.1,10.3c0.2,5.4,0,10.8,0,17.2c11,0,21.2-0.1,31.3,0
	c9.4,0.1,18.9-0.1,28.3,0.7c7.5,0.7,12.3,7.1,12.2,14.5c-0.2,7.1-4.9,12.6-12.1,14c-1.2,0.2-2.4,0.5-3.7,0.6
	c-12.9,1.1-12.7,1.1-16.6,14.1c-6.1,19.9-15.1,38.3-27.5,55.1c-2.1,2.8-4,5.6-7.2,10c15.7,11.3,31.1,22.5,46.7,33.6
	c3.4,2.4,7.3,4.2,10.8,6.7c7.7,5.4,9.6,13.5,5.3,20.8c-4.2,7-13.1,9.5-20.8,4.3c-18.1-12.2-35.8-25-53.5-37.7
	c-2.6-1.9-4.8-4.3-7-6.3c-12.9,9.9-25.3,19.7-38.1,29c-7,5.1-14.6,9.5-22,13.9c-9.5,5.7-18.3,4.4-22.9-3.2
	c-4.9-8.1-1.9-15.9,7.6-22.5c16.5-11.5,32.7-23.3,49-35.1C371.3,445.1,372.8,443.3,374,442.2z"/>
<path class="st2" d="M700.8,509.3c14.7,0,20.9,4.7,25.3,18.9c12.8,41.8,25.7,83.5,38.5,125.3c4,12.9,1.4,17.9-11.7,22.2
	c-12.5,4.2-18.7,0.9-22.1-11.6c-1.6-5.7-2.7-11.6-4.9-17.2c-0.8-2-3.8-4.5-5.9-4.5c-12.9-0.4-25.9-0.4-38.8,0c-2,0.1-5,2.6-5.8,4.7
	c-2.5,7-4.3,14.3-6,21.5c-1.4,5.8-5.1,8.7-10.7,8.2c-5.3-0.5-10.8-1.6-15.7-3.6c-7.8-3.3-9.5-8-7-16.2c13-43,26.1-86,39.2-128.9
	C679.5,514,686,509.2,700.8,509.3z M701.6,556.9c-0.6,0-1.1-0.1-1.7-0.1c-5.2,19-10.4,38-15.7,57.5c11.3,0,21.8,0,32.9,0
	C711.8,594.6,706.7,575.7,701.6,556.9z"/>
</svg>
