<?xml version="1.0" encoding="utf-8"?>
<!-- Generator: Adobe Illustrator 26.0.3, SVG Export Plug-In . SVG Version: 6.00 Build 0)  -->
<svg version="1.1" id="Capa_1" xmlns="http://www.w3.org/2000/svg" xmlns:xlink="http://www.w3.org/1999/xlink" x="0px" y="0px"
	 viewBox="0 0 1080 1080" style="enable-background:new 0 0 1080 1080;" xml:space="preserve">
<style type="text/css">
	.st0{fill:#FFFFFF;}
	.st1{fill:none;stroke:#000000;stroke-width:18;stroke-miterlimit:10;}
	.st2{fill:#C00A10;}
	.st3{fill:none;stroke:#000000;stroke-width:12;stroke-linecap:square;stroke-linejoin:round;stroke-miterlimit:10;}
	.st4{fill:none;}
	.st5{fill:none;stroke:#F7931E;stroke-miterlimit:10;}
</style>
<path class="st2" d="M592,839c-8.3-6.2-9.1-8.7-6.1-19.3c5.6-19.6,11.1-39.2,16.7-58.7c2.5-8.9,5.8-11.3,15.1-11.3
	c17.7,0,35.4,0,53,0c36-0.1,59.9-24,60-59.9c0-14.2,0-28.4,0-42.5c0-9.7,4.1-13.7,13.9-13.8c11.1-0.1,22.2,0,33.2,0
	c6.4,0,7.3-1.4,5.1-7.3c-11.4-29.9-22.9-59.8-34-89.8c-1.7-4.6-2.5-9.8-2.7-14.7c-0.7-17.3-0.1-34.6-1.6-51.8
	c-0.8-8.9-4.4-17.6-7.5-26.1c-3.1-8.6-2.5-12.8,4.7-18.2c28.3-21.1,42.4-49.3,42.6-84.5c0.1-22,0.2-43.9-0.2-65.9
	c0-3-1.8-7.1-4.1-8.5c-1.9-1.1-6.3,0.2-8.7,1.8c-10,6.7-20.9,9.8-32.9,9.8c-73.4-0.1-146.9-0.2-220.3,0.1
	c-40.3,0.2-77.7,11.3-112.3,31.9c-1.8,1.1-3.6,2.3-5.5,3.3c-6.1,3.1-12.5,1.4-15.8-4c-3.2-5.4-2-12.5,3.9-15.7
	c13.6-7.5,27.1-15.2,41.4-21.2c29.9-12.5,61.3-17.8,93.8-17.8c70.9,0.1,141.8,0,212.8,0.1c8.9,0,16.6-2.2,24-7.3
	c19.2-13.2,46.1-1.2,46.9,21.8c1,28.9,1.1,57.9-0.8,86.8c-2.1,32.2-17.3,58.8-41.3,80.3c-3.1,2.7-3.8,4.8-2.3,8.7
	c4.8,13.5,7.6,27.5,6.4,41.7c-2.1,25.8,2.9,49.8,13.4,73.4c8.4,18.7,14.8,38.3,22.1,57.6c7.9,21-3.7,38.3-26.1,38.7
	c-7.9,0.1-15.9,0-24.6,0c0,11.6,0.5,22.9-0.2,34c-0.6,9.2-1.4,18.7-4.2,27.4c-10.2,32.1-39.3,53.7-72.9,54.7
	c-15.9,0.5-31.9,0.3-47.8,0.1c-4.3-0.1-6,1.4-7.1,5.5c-4.4,16.3-9.3,32.4-13.8,48.7c-1.5,5.4-4,9.6-9.1,12
	C596.6,839,594.3,839,592,839z"/>
<path class="st2" d="M371.6,839c-8.2-5-9.5-8.1-7.5-17.8c12.3-59,0.7-113.2-34.9-161.5c-21.4-29.1-39-59.8-47.7-95
	c-16.5-67.5-7.1-131.3,28.5-191.1c3-5.1,7-8.5,13.2-7.3c5,0.9,8.8,4.1,9.1,9.2c0.2,3.4-0.9,7.3-2.6,10.3
	c-14.8,24.8-25,51.2-29.5,79.7c-9.9,63,3.5,120.5,41.7,171.6c21.5,28.7,37.7,59.5,45.3,94.7c6.9,32,6.8,64-0.8,95.8
	c-1,4.2-5.1,7.6-7.8,11.4C376.2,839,373.9,839,371.6,839z"/>
<path class="st2" d="M524,626.8c0,7,0.1,14,0,21c-0.1,10.1-4.1,14.2-14.1,14.3c-10.7,0.1-21.4-0.2-32.1,0.1
	c-6.7,0.2-10.9-2.6-13.9-8.5c-9.2-18.4-18.6-36.7-28.2-54.9c-1.5-2.9-4.4-5.1-6.9-7.4c-10.2-9.1-22.8-12.6-35.6-16.6
	c-38.1-12-63.1-47.8-62.9-88.1c0.1-39.9,25.5-75,63.2-87.4c3.2-1.1,5-2.5,6.2-5.9c8.8-25.3,35.9-38.5,61.2-30
	c3.3,1.1,5.6,0.9,8.6-0.9c33.9-21.1,67.9-21.2,102.2-0.7c2.3,1.4,5.3,2.3,8,2.2c27.1-1.3,48.7,9,65.2,30.4c2.2,2.9,5.5,5.4,8.8,6.8
	c39.2,16.1,61.8,54.8,57.1,98.3c-4.2,39.2-36.6,73.1-76.8,79c-11,1.6-20.3,4.8-29.7,10.8c-22.1,14-46.4,16.5-71.7,9.8
	c-7-1.9-8.7-0.7-8.7,6.7C524,612.8,524,619.8,524,626.8z M500.7,638.7c0-10.3,0-20,0-29.7c0.1-24.3-2.3-19.1,17.8-33
	c4.4-3,8.7-3.5,13.7-1.7c26.7,9.5,50.6,4.9,72.3-13.5c2.9-2.5,7.5-3.4,11.5-4.1c5.7-1,11.7-0.5,17.3-1.7c31.5-6.7,53.5-33,55.2-65.2
	C690,459.4,670,431,640,421.2c-4.8-1.6-8.5-4-11.2-8.5c-11.5-19-28.5-27.5-50.5-24.9c-6.5,0.8-11.5-0.7-16.7-4.5
	c-25.2-18.5-59.7-17.7-83.8,2.1c-6.6,5.4-12.3,6.5-20,2c-15.3-8.8-34.2,0.7-37.1,17.9c-1.7,10.3-3.2,11.9-13.1,14.2
	c-36.6,8.5-59.5,43.8-52.5,80.8c5.6,29.6,29.3,52,59,55.5c6.2,0.7,11.4,2.5,16,7.1c3.9,3.9,8.8,7.1,13.7,9.7c5,2.5,8.3,6,10.7,10.9
	c8.5,17,17.2,33.9,26,50.8c0.9,1.7,2.6,4,4.1,4.2C489.6,639,494.8,638.7,500.7,638.7z"/>
<path class="st2" d="M512.7,478.4c-0.9-12.4,4.5-21.3,16.9-26.1c7.3-2.8,10.5-9.9,8.6-17.1c-1.7-6.5-7.9-10.9-15-10.4
	c-7.1,0.4-12,5.3-13.2,13.2c-1.5,9.6-7.7,14.6-15.2,12.1c-5.4-1.8-8.1-5.7-8.2-11.4c-0.4-19,15.3-35.8,34.7-37.1
	c20.2-1.4,38.2,13,40.3,32.4c1.9,17.4-6,32.1-21.8,39.4c-3.3,1.5-4.3,3.4-4,6.6c0.2,1.5,0.1,3.1,0,4.7c-0.3,7.2-4.9,12-11.5,12.1
	c-6.9,0.1-11.5-4.8-11.8-12.4C512.6,482.5,512.7,480.8,512.7,478.4z"/>
<path class="st2" d="M524.3,541.7c-6.2,0-11.4-5.1-11.5-11.4c-0.1-6.4,5.3-11.9,11.7-11.9c6.2,0,11.4,5.2,11.5,11.4
	C536.1,536.4,530.7,541.7,524.3,541.7z"/>
</svg>
