<?xml version="1.0" encoding="utf-8"?>
<!-- Generator: Adobe Illustrator 26.0.3, SVG Export Plug-In . SVG Version: 6.00 Build 0)  -->
<svg version="1.1" id="Capa_1" xmlns="http://www.w3.org/2000/svg" xmlns:xlink="http://www.w3.org/1999/xlink" x="0px" y="0px"
	 viewBox="0 0 1080 1080" style="enable-background:new 0 0 1080 1080;" xml:space="preserve">
<style type="text/css">
	.st0{fill:#FFFFFF;}
	.st1{fill:none;stroke:#000000;stroke-width:18;stroke-miterlimit:10;}
	.st2{fill:#C00A10;}
	.st3{fill:none;stroke:#000000;stroke-width:12;stroke-linecap:square;stroke-linejoin:round;stroke-miterlimit:10;}
	.st4{fill:none;}
	.st5{fill:none;stroke:#F7931E;stroke-miterlimit:10;}
</style>
<path class="st2" d="M920.5,853.7c-3.8,4.8-7.8,9.1-14.8,6.5c-6.8-2.6-7.5-8.3-7.5-14.6c0.1-37.1,0.1-74.2,0-111.2
	c0-24.9-14.7-39.7-39.6-39.7c-53.4-0.1-106.8-0.1-160.2,0c-25,0-39.4,14.6-39.4,39.8c-0.1,36.6,0,73.2-0.1,109.8
	c0,3.2,0.5,7.3-1.2,9.3c-2.7,3.2-6.8,6.6-10.7,7.1c-5.2,0.7-9.1-3.2-10-8.9c-0.4-2.7-0.3-5.4-0.3-8.1c0-53.9-0.2-107.8,0.1-161.7
	c0.1-19.4-6.2-35-21.8-47c-12.3-9.5-23.9-19.8-37.7-31.3c-0.7,7.5-1.6,13.4-1.6,19.3c-0.1,72.9-0.1,145.8-0.1,218.8
	c0,2.7,0.1,5.5-0.1,8.2c-0.6,6.9-5.4,11.4-11.4,11.2c-5.8-0.2-10.3-4.6-10.5-11.2c-0.3-9.1-0.1-18.3-0.2-27.4c0-2.7,0-5.3,0-8.8
	c-3.7,0-6.6,0-9.5,0c-121.9,0-243.7,0-365.6,0c-3,0-6,0.2-8.8-0.6c-5.7-1.5-8.9-5.6-8.3-11.5c0.5-5.8,4.1-9.5,10.1-10
	c4.1-0.3,8.3-0.1,13.5-0.1c0-3.2,0-5.8,0-8.4c0-38.6,1.1-77.2-0.3-115.7c-2.1-58,38-106,95.2-113.6c0-8.9,0.2-17.9-0.1-27
	c-0.1-1.6-1.8-3.4-3.1-4.7c-12.9-12.5-21.9-27.3-27.7-44.2c-0.7-2.2-2.2-4.4-4-5.8c-32.8-26.1-41.5-60.5-34-100.2
	c1-5.3,0-8.5-3.6-12.3c-32.4-33.8-29.8-87.3,5.3-118.5c34.9-30.9,88.8-26.5,118.2,10c3.5,4.4,6.8,5.7,12.4,5.3
	c66.2-3.7,121.4,41.1,133.9,108.5c4.6,24.9,5.6,49.6-5.8,73.3c-0.1,0.2-0.1,0.5-0.3,0.7c-11.8,15.4-17.6,33.6-24.7,51.4
	c-8.5,21-23.9,36.8-43.8,47.6c-6.4,3.5-5.5,8.3-4.7,13.1c0.3,1.9,4.1,4,6.7,4.7c28.7,7.8,50,33,52,62.5c0.4,5.8,2.6,6.9,7.7,6.8
	c9.9-0.3,19.8-0.3,29.7,0.1c18.9,0.8,33.8,14.6,34.1,33.4c0.7,40.5,0.2,81.1,0.1,121.6c0,3.4-1,6.8-1.6,10.8c8.8,0,17.5,0,27.3,0
	c0-2.8,0-5.7,0-8.6c0-52.9,0.3-105.8-0.1-158.7c-0.2-28.5,11.7-48.5,37.5-60.8c21.6-10.3,42.7-21.7,64.4-31.9
	c7.9-3.7,4.5-9.8,5.4-15.1c0.8-4.8-2.2-6.1-5.9-7.8c-40.5-18.5-63.1-49.7-65.2-94.5c-1.1-23.7-0.2-47.5-0.5-71.2
	c0-2.5-1.1-6.1-3-7.3c-18.1-11.9-23.4-23.6-19.7-44.4c5.9-32.5,33.6-57.3,66.7-58c34.1-0.8,68.2-1,102.3,0
	c48.7,1.4,88.8,42.4,89.8,91.2c0.7,29.2,0.6,58.3,0,87.5c-0.5,21.9-10.8,38.7-29.9,49.6c-4.3,2.4-5.8,4.9-5.6,9.8
	c0.3,13.1,0.5,26.2,0,39.3c-0.3,8.6,2.9,13.8,10.6,17.5c16.9,8.1,33.6,16.6,50.4,25.1c22.7,11.4,34,30,34.2,55.4
	c0.1,20.8,0.2,41.5-0.1,62.3c-0.1,4.7,1.1,7.4,5.5,9.8c15,8,24.1,20.8,28.6,37c0.4,1.6,1.1,3.2,1.7,4.7
	C920.5,765.7,920.5,809.7,920.5,853.7z M433.3,624.8c3.1-19.6-12.4-40.8-33.5-47.2c-5-1.5-7.6-1-10.5,4
	c-22.7,39.4-78.6,39.5-101.3,0.2c-3-5.2-6-6-11.1-5.1c-40.8,7.6-69.5,41.4-69.8,83c-0.3,42-0.1,84.1-0.1,126.1c0,1.6,0.3,3.3,0.5,5
	c13.2,0,25.8,0,38.5,0c-0.7-5.1-1.7-9.7-1.8-14.3c-0.2-18.3-0.1-36.6-0.1-54.9c0-8.7,4.3-13.6,11.3-13.5c7,0.1,10.9,4.8,10.9,13.7
	c0.1,17.1,0,34.1,0,51.2c0,13.5,4.7,18.2,18.4,18.2c67.5,0,135,0,202.5,0c14,0,18.5-4.5,18.5-18.8c0-35.1,0-70.2,0-105.3
	c0-16.3-3.8-20.2-19.9-20.2c-65,0-130,0.3-195.1-0.2c-20-0.2-26.2,4.7-24.4,23.4c0,0.5,0,1,0,1.5c-0.6,6.4-5,10.9-10.9,10.9
	c-5.8,0.1-10.5-4.4-11.2-10.7c-3.3-32,16.2-47.9,41.7-47.4c46.2,0.9,92.5,0.3,138.7,0.3C427.6,624.8,430.5,624.8,433.3,624.8z
	 M769.1,529.3c-0.5-8.8-1.2-17.1-1.5-25.4c-0.3-8.1,0-16.3-0.1-24.5c0-5.4,1.5-11.1-6.7-13.2c-2.4-0.6-4.9-6.9-4.6-10.3
	c0.3-3.1,4-6.2,6.8-8.6c1.5-1.2,4.2-1,6.4-1.2c19-1.9,33.3-16.2,33.5-35.2c0.4-29.2,0.8-58.3-0.1-87.5c-1.2-37.1-31-67.3-67.9-68.6
	c-33.8-1.1-67.7-0.8-101.6-0.1c-25.3,0.5-45.5,22-45.7,46.5c-0.1,9,4.4,13.8,13.4,14.1c4,0.1,7.9-0.1,11.9,0.1
	c24.1,1.1,42.9,17.9,45.3,41.8c1.3,12.5,0.6,25.2,0.7,37.8c0.3,31.1,19.9,50.8,50.9,51.2c3.9,0,8-0.1,11.8,0.7
	c5.6,1.1,8.5,5.2,8.4,10.7c-0.2,5.8-3.3,10-9.4,10.6c-21.9,1.9-42.4-1.7-59.5-16.9c-15.4-13.6-23.8-30.6-24.3-51.3
	c-0.2-12.4,0.1-24.7-0.2-37.1c-0.5-15.1-11-25.2-25.2-24.3c0,24.1-0.5,48.3,0.1,72.5c0.9,38.1,23.6,67.6,60.1,79.2
	c8.8,2.8,11,5.7,11.1,15c0.1,7.8,0,15.7,0,23.9C712.3,529.3,740.9,529.3,769.1,529.3z M862.6,672.4c0-22.1-0.1-43.1,0-64.1
	c0.1-16.8-7.3-28.8-22.4-36.2c-11.5-5.7-22.9-11.7-34.5-17c-3.9-1.8-8.4-2.9-12.7-3c-31.1-0.2-62.3,1.1-93.4-0.5
	c-25.8-1.3-49.1,3.3-71.1,16.9c-11.2,7-23.6,12.1-36.1,18.3c2.1,1.9,3.5,3.2,4.9,4.4c11.6,9.7,23.1,19.3,34.7,29
	c16,13.3,25.1,30.2,26.5,51.1c0.3,4,0.6,8,0.9,13.3c14.7-11.4,30.7-12.4,47.3-12.3c48.7,0.3,97.4,0.1,146.1,0.1
	C855.8,672.4,858.7,672.4,862.6,672.4z M304.7,365.3c-24.2,22.7-39.2,48.9-38.5,82.4c0.9,40.8,32.6,76.3,72.7,81
	c42.5,5,82.6-20.6,91.6-61.2c4.1-18.5,2.9-38.2,3.1-57.4c0.1-6.6-5.6-9.8-12.3-10.5C380.5,395.2,340.9,386.5,304.7,365.3z
	 M456.2,406.7c0.9-0.2,1.7-0.3,2.6-0.5c-1.3-12.9-1.6-26.1-4.3-38.7c-7.9-36.8-26.8-66.1-62.7-80.8c-78.2-32-167.9,31.4-160.7,120.5
	c0.9,11.2,4.6,21.8,12.8,31.5c1.9-22.3,7.6-42.3,20-59.5c9.2-12.8,20.1-24.3,30.6-36.2c4.4-5,9.8-4.5,15.4-1.2
	c8,4.8,16.1,9.7,24.6,13.6c26.7,12.4,55.2,18.5,84.3,21.3C438.1,378.8,451.2,387,456.2,406.7z M220.2,340.5
	c18.8-39.5,48.7-65.4,89.6-78.8c-20.4-23.5-57.7-25.2-82.1-4.5C203.2,278.1,199.6,315.3,220.2,340.5z M302.4,541.2
	c-1.9,18.8,2.2,34.7,19.8,43.7c13.8,7,27.4,5.4,39.4-4.3c9.7-7.9,14.1-18.3,13-31.1C343.7,553.5,332.9,552.7,302.4,541.2z"/>
<path class="st2" d="M420.9,719.4c-0.1,19.3-15.9,34.9-35,34.7c-19-0.2-34.9-16.2-34.7-35.2c0.2-19.2,15.9-34.6,35.2-34.5
	C405.8,684.5,421,699.9,420.9,719.4z M398.6,719c-0.1-7.2-5.5-12.5-12.8-12.3c-6.7,0.2-12.2,5.6-12.3,12.2
	c-0.1,6.8,5.8,12.8,12.6,12.9C393,731.8,398.6,726,398.6,719z"/>
<path class="st2" d="M362,498.6c-9.2-2.3-18.4-4-27.2-6.9c-6.6-2.1-9.2-8.4-7-14.2c2.2-5.9,8-8.8,14.5-6.4c13.1,4.8,25.9,5,38.9,0.1
	c6.9-2.6,12.9,0.5,15,6.7c1.9,5.7-0.8,11.7-7.5,13.9C380.1,494.6,371.2,496.3,362,498.6z"/>
<path class="st2" d="M337.5,427.4c0,12-3.4,17.2-11.2,17.2c-7.7,0-11-5.2-11-17.3c0-1.2,0-2.5,0-3.7c0.2-7.9,4.5-13,11.1-12.9
	c6.5,0,10.9,5.1,11.1,13C337.5,425,337.5,426.2,337.5,427.4z"/>
<path class="st2" d="M408.7,427.8c0,2,0.1,4,0,5.9c-0.5,6.5-4.7,10.7-10.8,10.9c-6.3,0.1-10.9-4.2-11.4-11c-0.2-3.7-0.2-7.4,0-11.1
	c0.3-6.9,4.7-11.6,10.8-11.8c6.4-0.2,11,4.6,11.4,11.9C408.8,424.4,408.7,426.1,408.7,427.8z"/>
</svg>
