<?xml version="1.0" encoding="utf-8"?>
<!-- Generator: Adobe Illustrator 26.0.3, SVG Export Plug-In . SVG Version: 6.00 Build 0)  -->
<svg version="1.1" id="Capa_1" xmlns="http://www.w3.org/2000/svg" xmlns:xlink="http://www.w3.org/1999/xlink" x="0px" y="0px"
	 viewBox="0 0 1080 1080" style="enable-background:new 0 0 1080 1080;" xml:space="preserve">
<style type="text/css">
	.st0{fill:#FFFFFF;}
	.st1{fill:none;stroke:#000000;stroke-width:18;stroke-miterlimit:10;}
	.st2{fill:#C00A10;}
	.st3{fill:none;stroke:#000000;stroke-width:12;stroke-linecap:square;stroke-linejoin:round;stroke-miterlimit:10;}
	.st4{fill:none;}
	.st5{fill:none;stroke:#F7931E;stroke-miterlimit:10;}
</style>
<path class="st2" d="M858.8,362.8c-1.8,11.4-3.1,22.9-5.3,34.2c-5.4,27.1-13.9,53.3-25.9,78.1c-5.2,10.8-6.2,21.1-4.7,32.8
	c7.3,58.7-3.7,114.1-31,166.4c-3.6,7-10.5,9.6-16.5,6.7c-6.6-3.1-8.6-10.3-5.5-18c7.2-18,16.1-35.6,21.1-54.2
	c21-78.9,6.7-152-37.6-217.5c-15,0-28.4,0.1-41.8,0c-10.9-0.1-20.9,2.3-29.7,8.9c-11.2,8.5-17,19.9-18.1,33.9
	c-1.7,22.8-12.7,33.7-35.7,35.8c-12.6,1.1-22,10.4-23,22.8c-0.3,3.5-0.4,7-0.2,10.5c0.8,15.1,10.9,24.9,26.1,25
	c30.4,0.1,60.9,0,91.3,0.1c2.3,0,4.6,0,6.8,0.4c6.1,1.2,10.4,6.4,10.3,12.2c-0.1,5.7-4.1,10.5-10.1,11.8c-1.8,0.4-3.7,0.4-5.6,0.4
	c-30.7,0-61.3,0.1-92,0c-25.1-0.1-44.7-14.2-50.1-38.1c-6.2-27.6,1-52.3,26.8-64.9c6-2.9,13-3.9,19.7-5c7.5-1.2,10.2-3.6,10.7-11.1
	c2.4-39.6,31.2-67.1,70.8-67.6c7.2-0.1,14.4,0,22.7,0c-1.2-1.7-1.7-2.7-2.5-3.5c-36.3-38.4-80.2-63.4-131.6-75.3
	c-2.4-0.5-5.5-0.2-7.6,1c-21.3,12.4-42.7,24.5-63.3,37.9c-8.7,5.7-15.4,14.3-22.7,22c-1,1.1-0.5,4.6,0.4,6.5
	c15.7,33.1,31.6,66,47.4,99c2.2,4.7,4.6,9.3,6.7,14c3.3,7.3,2.6,11.7-3,17.4c-7.2,7.4-14.5,14.8-22,22c-7.8,7.6-15.3,7.1-22.1-1.7
	c-22.6-29.4-45.1-58.9-67.6-88.3c-1.2-1.6-2.5-3.1-4.2-5.2c-19.6,19.7-38.9,39-58,58.5c-1.5,1.5-1.7,4.9-1.5,7.3c1,13,2.2,26,3.5,39
	c0.6,6-1.2,10.8-5.6,15c-8.9,8.6-17.6,17.6-26.4,26.3c-9.2,9-19.4,6.3-23-6c-1.9-6.5-3.7-13-6-21c-7.6,12.3-14.4,23.3-21.1,34.3
	c-2,3.4-3.8,6.9-5.7,10.3c-11,20.3-10.9,20.2-3.7,42.2c20.9,64.1,60.2,113.7,118.5,147.5c47.7,27.7,99.6,38.3,154.5,33.6
	c0-12.5,1-24.7-0.3-36.7c-1.1-10.8-10.2-18.9-21.2-19.4c-16.9-0.9-33.9-0.6-50.9-0.7c-11,0-22,0.1-32.2-5.1
	c-17-8.7-26.4-22.6-28.5-41.6c-1.4-12.4-4-14.8-16.6-14.7c-14.8,0.2-29.2-0.5-42.6-8.3c-20-11.7-31.6-36.5-27.3-60
	c4.3-23.4,23.3-42.6,46.1-46.1c4.6-0.7,7.3-1.8,8.6-7.4c3.7-16.5,18.6-29.9,35.9-30.4c28.3-0.8,56.8-0.9,85,0.8
	c24,1.4,45.9,25.3,47.2,49.5c1,18.6,0.7,37.2,1,55.9c0.1,8.5,0.8,9.4,9.2,9.3c15.7-0.3,30.5,2,42.7,13.1
	c9.6,8.7,15.6,19.5,16.5,32.4c0.8,11.8,0.6,23.6,0.4,35.4c-0.1,7.2-4.9,11.9-11.5,12.2c-6.7,0.3-12-3.6-12.7-10.9
	c-0.8-8.6-1-17.4-0.4-26c1.3-19.8-11.1-32.3-31.6-31.4c-5.7,0.3-11.7-0.2-17.1-1.7c-11.5-3.3-19.6-13.7-20-25.7
	c-0.5-16.8-0.3-33.5-0.3-50.3c-0.1-25.3-12.9-38.1-38.3-38.2c-20.9,0-41.8,0-62.8,0c-12.8,0-19.1,5.7-20.3,18.3
	c-1.1,11.5-8.6,18.1-21.4,18.9c-14.7,0.9-26.4,9.5-30.6,22.3c-6.9,21.1,7.7,42.2,30.3,43.5c6.2,0.3,12.4,0,18.6,0.1
	c20.3,0.4,34.8,14,36.5,34.2c1.6,18.5,10.8,27,29.3,27.1c19.3,0.1,38.5,0,57.7,0.6c24.7,0.8,47.1,21.8,47.2,51.9
	c0,8.3,0,16.5,0,25.3c23.2-4.4,44.9-11.8,65.3-22.4c10.3-5.3,19.9-11.9,30.1-17.4c3.4-1.9,7.8-3.3,11.5-3.1c5.1,0.3,8.4,4.3,9.5,9.4
	c1.2,5.5-1.2,9.9-5.5,12.9c-6.1,4.2-12.4,8.3-18.8,12c-52.6,30.2-109.2,43.2-169.4,36.8c-17.1-1.8-31.6,0.5-46.9,7.5
	c-29.1,13.2-59.7,21.9-91.5,26.1c-4.3,0.6-8.6,1.2-12.8,1.7c-9.5,0-19.1,0-28.6,0c-7.1-1.3-14.2-2.3-21.2-3.9
	c-40.1-9.2-68.5-32.1-82.4-71.3c-9.1-25.7-9.8-52.4-6.2-79.1c4.9-37,16.5-72.1,32.5-105.7c2.8-6,3.3-11.6,2.3-18
	c-3.6-23.9-4.4-47.9-1.2-71.8c1.9-14.3,4.7-28.4,7.1-42.7c-0.2-0.1-0.5-0.5-0.8-0.6c-10.4-2.9-20.8-5.6-31.1-8.7
	c-11.2-3.3-14-13.7-5.9-22.1c9.2-9.5,18.7-18.8,28.1-28.2c3.9-3.9,8.6-5.3,14.1-4.8c13.6,1.3,27.2,2.6,40.8,3.6
	c1.8,0.1,4.3-0.4,5.5-1.6c19.4-19.2,38.7-38.5,58.3-58.1c-1.9-1.6-3.5-2.9-5.1-4.1c-29.1-22.3-58.2-44.5-87.3-66.8
	c-10.3-7.9-10.6-14.9-1.4-24.1c6.1-6.2,12.3-12.3,18.5-18.4c8.7-8.7,11.4-9.2,22.4-4c36.7,17.6,73.5,35.2,110.2,53
	c3.9,1.9,6,1.6,9-1.5c8.7-9.2,17.7-18,26.7-26.9c23.3-22.7,51-33.1,83.6-29.7c8.1,0.8,12.3,4.9,12.4,12.8
	c0.1,10.3-0.7,20.6-1.3,30.9c-0.2,2.8-1.1,5.5-2,9.5c3.2-1.7,5.3-2.9,7.5-3.9c18.5-8.8,36.6-18.5,55.5-26.1
	c41.1-16.5,83.3-26.8,128.2-23.1c51.2,4.3,89.8,35.4,102.7,84.8c2.3,8.9,3.4,18.2,5.1,27.3C858.8,344.6,858.8,353.7,858.8,362.8z
	 M524.7,481.1c9.3-8.4,9.3-8.4,4.3-18.7c-16.7-34.7-33.3-69.3-50-104c-5.9-12.3-5.5-14.6,4.3-24.4c6-6,12.1-11.9,18-18
	c8-8.4,16.6-16.3,23.6-25.5c9.5-12.4,13.8-26.9,13.8-42.9c-1.6-0.1-2.6-0.2-3.6-0.2c-1.2,0-2.5,0.1-3.7,0.3
	c-18.5,2.3-34.3,10.1-47.5,23.4c-10.8,10.9-21.7,21.7-32.5,32.5c-8.8,8.8-11.8,9.3-23,3.9c-36.2-17.4-72.4-34.6-108.4-52.2
	c-5.1-2.5-8.3-2.2-11.4,2.2c-0.9,1.3-2.1,2.4-3.5,4c2,1.6,3.8,3,5.5,4.4c28.8,22,57.6,44,86.3,66.1c10.6,8.2,11.1,15.1,1.6,24.6
	c-23,23-46,45.9-68.9,69.1c-4.3,4.4-9,6.2-15,5.6c-10.9-1.1-22-1.2-32.7-3.3c-10.5-2.1-16.8,2.2-22.1,10.6
	c19.7,5.4,39.1,11,58.7,16.1c7.3,1.9,11.3,5.9,13.2,13.1c4.4,17,9.2,33.9,13.8,50.9c0.7,2.7,1.6,5.3,2.5,8
	c8.2-5.6,12.4-11.7,10.4-22c-2.2-10.9-2.1-22.2-3.1-33.4c-0.5-5.8,1.2-10.3,5.4-14.5c23.2-23,46.3-46.2,69.5-69.3
	c9.1-9.1,16.1-8.6,24.1,1.9c8.7,11.3,17.4,22.7,26,34C495,442.4,509.8,461.6,524.7,481.1z M630.5,270.1
	c88.6,32.3,148.3,92.3,180.6,180.8c3.2-8.9,6.4-16.8,8.9-24.8c10.1-31.4,16.3-63.2,12.7-96.5c-4.9-45.4-36.1-76.5-81.6-81.2
	C709.1,244,670,254.8,630.5,270.1z M451,811c-88.4-32.3-148.6-91.9-180.9-181c-3.5,9.9-6.8,18.5-9.6,27.4
	c-10.4,33.3-16.6,66.9-10.7,102c6.1,36.1,31.1,63,66.8,70.8C363.5,840.4,407.1,827.6,451,811z M281.1,549.4c1-0.3,1.5-0.2,1.7-0.5
	c10.2-15.6,20.3-31.2,30.4-46.8c0.8-1.2,1.3-3.2,0.9-4.6c-1.4-5.8-3-11.6-4.8-17.3c-0.4-1.2-1.5-2.6-2.6-3c-5.4-1.7-11-3-16.7-4.6
	C283.2,498.3,280.3,523.5,281.1,549.4z"/>
</svg>
